<svg width="115" height="30" viewBox="0 0 115 30" fill="none" xmlns="http://www.w3.org/2000/svg">
<path d="M24.3705 20.5396C24.3705 16.6327 22.6776 14.7227 19.7691 13.594C22.0698 12.4654 23.3287 10.5988 23.3287 7.4733C23.3287 2.22073 19.6389 0.00683594 14.0825 0.00683594H3.23006C1.53709 0.00683594 0.191406 1.48276 0.191406 3.17574V29.5254H13.6049C19.9862 29.5254 24.3705 26.6603 24.3705 20.5396ZM17.2514 8.25466C17.2514 10.729 15.2979 11.467 12.9104 11.467H6.1385V5.12917H12.8236C15.5584 5.12917 17.2514 5.78032 17.2514 8.25466ZM17.9893 20.3659C17.9893 23.3178 16.1661 24.186 13.1709 24.186H6.1385V16.4591H13.0841C16.2095 16.4591 17.9893 17.3273 17.9893 20.3659ZM35.2229 25.2712C33.3997 25.2712 32.4447 24.403 32.3145 22.5798C32.3145 20.8869 33.4865 19.8016 35.7873 19.3675C37.4802 19.0202 39.043 18.5427 40.3887 17.9784V20.1055C40.3887 23.3612 38.4352 25.2712 35.2229 25.2712ZM36.5686 10.9461C38.9562 10.9461 40.1716 11.5972 40.3019 12.8995C40.3019 14.1584 39.043 14.8963 36.5686 15.2002C30.7517 15.7645 26.7581 17.2405 26.6278 22.7535C26.6278 27.8324 30.4479 30.3936 35.9609 29.9595C42.1685 29.5254 45.9885 26.7037 45.9885 20.3659V12.5522C45.8583 8.29807 42.646 6.21442 36.3082 6.21442C31.0122 6.21442 28.017 8.29807 27.3224 12.5522H33.0959C33.3997 11.467 34.5284 10.9461 36.5686 10.9461ZM48.7667 0.00683594V4.52144H54.5402V2.82846C54.5836 0.96185 53.672 0.00683594 51.762 0.00683594H48.7667ZM48.7667 6.56169V29.5254H54.5402V9.33991C54.5402 7.47329 53.6286 6.56169 51.762 6.56169H48.7667ZM67.5631 11.2933C70.1243 11.2933 71.4265 12.4654 71.5568 14.8529V29.5254H77.3736V14.9397C77.4171 12.5522 78.7194 11.3802 81.2805 11.3802C83.8417 11.3802 85.144 12.5522 85.2742 14.9397V26.7472C85.2742 28.5704 86.2292 29.482 88.1392 29.6122H91.1345V16.1118C91.1779 9.55695 87.9222 6.30123 81.3673 6.30123C78.4155 6.30123 76.1582 6.90896 74.5086 8.16784C72.8591 6.86555 70.6018 6.21442 67.6499 6.21442C61.0951 6.21442 57.7959 9.47013 57.7959 16.025V29.5254H63.6562V14.8529C63.6996 12.4654 65.0019 11.2933 67.5631 11.2933ZM99.7296 21.9721C99.8598 24.4899 101.683 25.3581 104.505 25.3581C106.936 25.3581 108.151 24.6635 108.151 23.1876C108.151 22.0155 106.154 21.0605 102.204 20.3659C97.125 19.4543 94.5204 17.197 94.477 13.594C94.477 8.64535 98.3839 6.30123 103.636 6.21442C106.588 6.21442 108.932 6.86555 110.669 8.16784C112.362 9.51354 113.273 11.3802 113.404 13.7677H109.757C108.501 13.7272 107.661 13.3085 107.272 12.5117L107.196 12.3352C106.805 11.3368 105.633 10.7724 103.723 10.7724C101.466 10.7724 100.337 11.3802 100.337 12.5522C100.337 13.6754 101.693 14.5595 104.442 15.1279L104.809 15.2002C108.715 15.9816 111.277 16.98 112.535 18.1521C113.621 19.2807 114.142 20.6698 114.142 22.2326C114.142 27.8758 109.714 29.9595 103.636 29.9595C100.593 29.9595 98.2513 29.3361 96.6844 28.1263L96.4305 27.9192C94.6941 26.6169 93.8259 24.6201 93.8259 21.9721H99.7296Z" fill="#AEB2BA"/>
</svg>
