<svg xmlns="http://www.w3.org/2000/svg"  viewBox="0 0 24 24" width="48px" height="48px" clip-rule="evenodd" baseProfile="basic"><circle cx="11.941" cy="12" r="9" fill-rule="evenodd" clip-rule="evenodd" opacity=".3"/><path d="M11.941,22c-5.514,0-10-4.486-10-10s4.486-10,10-10s10,4.486,10,10S17.455,22,11.941,22z M11.941,4c-4.411,0-8,3.589-8,8	s3.589,8,8,8s8-3.589,8-8S16.353,4,11.941,4z"/><path d="M9.466,10.585c-1.992,0-4.069-0.519-6.072-1.725l1.031-1.714c4.891,2.945,10.311,0.965,12.926-2.396l1.578,1.229	C16.857,8.642,13.32,10.585,9.466,10.585z"/><path d="M8.97,20.282l-1.979-0.295c0.475-3.182,2.41-6.042,5.311-7.847c2.842-1.769,6.227-2.283,9.062-1.378l-0.609,1.905	c-2.28-0.729-5.045-0.292-7.396,1.171C10.957,15.333,9.357,17.682,8.97,20.282z"/><path d="M14.909,21.412l-1.535-1.283c0.076-0.092,1.933-2.417,1.535-6.457c-0.491-4.993-4.483-7.872-7.752-8.82l0.557-1.921	c3.869,1.122,8.596,4.557,9.186,10.545C17.383,18.389,15.01,21.291,14.909,21.412z"/></svg>