<svg width="204" height="24" viewBox="0 0 204 24" fill="none" xmlns="http://www.w3.org/2000/svg">
<path d="M9.925 14.775L13.975 15.05C13.5 16.9 11.65 19.325 7.325 19.325C3.075 19.325 0.475 16.675 0.475 12.4C0.475 8.125 3 5.45 7.3 5.45C11.625 5.45 14.425 8.125 14.1 13.2H4.55C4.575 15.3 5.65 16.65 7.325 16.65C9.05 16.65 9.7 15.6 9.925 14.775ZM7.3 8.05C5.625 8.05 4.675 9.25 4.575 10.8H10.05C9.95 9.25 9 8.05 7.3 8.05ZM19.4234 7.525L19.5234 7.55C20.3734 6.35 21.6984 5.45 23.6484 5.45C26.1984 5.45 28.2234 6.95 28.2234 10.325V19H24.2484V11.275C24.2484 9.325 23.4484 8.625 21.9984 8.625C20.6734 8.625 19.4234 9.75 19.4234 11.95V19H15.4484V0.899999H19.4234V7.525ZM36.6568 16.025C37.0568 16.025 37.4068 16.025 37.7068 16V19C37.3318 19.05 36.1818 19.05 35.2068 19.05C32.3068 19.05 31.1068 18.45 31.1068 15.7V8.325H29.0318V5.75H31.1068V2.075H35.0818V5.75H37.7818V8.325H35.0818V14.725C35.0818 15.9 35.5318 16.025 36.6568 16.025ZM38.9109 0.899999H42.8859V4.025H38.9109V0.899999ZM38.9109 5.75H42.8859V19H38.9109V5.75ZM56.1273 9.375L52.4523 9.8C52.2273 8.625 51.3023 7.95 50.1023 7.95C48.9523 7.95 48.1273 8.45 48.1273 9.35C48.1273 10.2 49.0023 10.475 50.3273 10.675L51.7273 10.9C54.1523 11.3 56.5273 12.025 56.5273 15.05C56.5273 18.025 53.7773 19.325 50.2023 19.325C46.6773 19.325 44.1523 17.825 43.7023 15.15L47.4273 14.7C47.7023 16.125 48.7023 16.8 50.2273 16.8C51.6023 16.8 52.4773 16.2 52.4773 15.225C52.4773 14.4 51.5523 14.025 50.1273 13.8L48.6023 13.55C46.4523 13.225 44.1773 12.45 44.1773 9.55C44.1773 6.9 46.9523 5.45 50.0773 5.45C53.2523 5.45 55.6773 6.9 56.1273 9.375ZM61.7086 7.525L61.8086 7.55C62.6586 6.35 63.9836 5.45 65.9336 5.45C68.4836 5.45 70.5086 6.95 70.5086 10.325V19H66.5336V11.275C66.5336 9.325 65.7336 8.625 64.2836 8.625C62.9586 8.625 61.7086 9.75 61.7086 11.95V19H57.7336V0.899999H61.7086V7.525ZM84.7152 19H80.7902C80.5402 18.725 80.4152 18.05 80.4152 17.125C79.7152 18.55 77.9652 19.325 76.0652 19.325C73.7902 19.325 71.6402 17.875 71.6402 15.425C71.6402 12.575 73.6152 11.5 77.0652 11.075C79.7402 10.725 80.4152 10.375 80.4152 9.6C80.4152 8.7 79.6902 8.15 78.3152 8.15C77.1902 8.15 76.2402 8.775 75.8402 9.975L72.1652 9.525C72.7402 6.95 75.1402 5.45 78.4152 5.45C82.4902 5.45 84.3652 7.175 84.3652 9.85V16.45C84.3652 17.775 84.3902 18.5 84.7152 19ZM80.4152 13.9V12.625C79.9902 12.925 79.0152 13.075 77.8152 13.275C76.5902 13.475 75.6902 14.05 75.6902 15.15C75.6902 16.15 76.3902 16.725 77.4402 16.725C78.6902 16.725 80.4152 15.95 80.4152 13.9ZM102.233 5.45C104.708 5.45 106.683 6.95 106.683 10.325V19.025H102.708V11.275C102.708 9.325 101.933 8.625 100.608 8.625C99.358 8.625 98.258 9.65 98.258 11.825V19.025H94.283V11.275C94.283 9.325 93.533 8.625 92.208 8.625C90.958 8.625 89.858 9.65 89.858 11.825V19.025H85.883V5.75H89.683V7.55H89.783C90.608 6.375 91.883 5.45 93.833 5.45C95.533 5.45 96.958 6.15 97.708 7.65C98.708 6.5 99.983 5.45 102.233 5.45Z" fill="#AEB2BA"/>
<path d="M113.498 5.45C115.373 5.45 116.698 6.15 117.473 7.325H117.573V0.899999H121.523V19H117.723V17.25H117.623C116.773 18.75 115.248 19.325 113.573 19.325C110.273 19.325 107.848 16.675 107.848 12.4C107.848 8.1 110.273 5.45 113.498 5.45ZM114.848 16.35C116.598 16.35 117.773 15.075 117.773 12.4C117.773 9.7 116.598 8.425 114.848 8.425C113.048 8.425 111.898 9.7 111.898 12.4C111.898 15.075 113.048 16.35 114.848 16.35ZM132.166 14.775L136.216 15.05C135.741 16.9 133.891 19.325 129.566 19.325C125.316 19.325 122.716 16.675 122.716 12.4C122.716 8.125 125.241 5.45 129.541 5.45C133.866 5.45 136.666 8.125 136.341 13.2H126.791C126.816 15.3 127.891 16.65 129.566 16.65C131.291 16.65 131.941 15.6 132.166 14.775ZM129.541 8.05C127.866 8.05 126.916 9.25 126.816 10.8H132.291C132.191 9.25 131.241 8.05 129.541 8.05ZM149.365 9.375L145.69 9.8C145.465 8.625 144.54 7.95 143.34 7.95C142.19 7.95 141.365 8.45 141.365 9.35C141.365 10.2 142.24 10.475 143.565 10.675L144.965 10.9C147.39 11.3 149.765 12.025 149.765 15.05C149.765 18.025 147.015 19.325 143.44 19.325C139.915 19.325 137.39 17.825 136.94 15.15L140.665 14.7C140.94 16.125 141.94 16.8 143.465 16.8C144.84 16.8 145.715 16.2 145.715 15.225C145.715 14.4 144.79 14.025 143.365 13.8L141.84 13.55C139.69 13.225 137.415 12.45 137.415 9.55C137.415 6.9 140.19 5.45 143.315 5.45C146.49 5.45 148.915 6.9 149.365 9.375ZM150.996 0.899999H154.971V4.025H150.996V0.899999ZM150.996 5.75H154.971V19H150.996V5.75ZM169.812 5.75V17.975C169.812 22.425 166.812 23.925 163.012 23.925C159.762 23.925 157.137 22.675 156.312 19.525L160.262 19.15C160.662 20.5 161.562 21.05 163.012 21.05C164.687 21.05 165.837 20.2 165.837 17.9V16.625H165.737C164.962 17.725 163.687 18.325 161.812 18.325C158.662 18.325 156.237 15.875 156.237 11.875C156.237 7.9 158.662 5.45 161.912 5.45C163.562 5.45 165.062 5.95 165.912 7.375H166.012V5.75H169.812ZM163.162 15.4C164.887 15.4 166.037 14.05 166.037 11.875C166.037 9.75 164.887 8.425 163.162 8.425C161.412 8.425 160.287 9.75 160.287 11.875C160.287 14.05 161.412 15.4 163.162 15.4ZM175.132 7.525L175.232 7.55C176.057 6.35 177.407 5.45 179.457 5.45C182.082 5.45 184.107 6.95 184.107 10.325V19H180.132V11.275C180.132 9.325 179.332 8.625 177.882 8.625C176.532 8.625 175.307 9.65 175.307 11.825V19H171.332V5.75H175.132V7.525ZM197.314 9.375L193.639 9.8C193.414 8.625 192.489 7.95 191.289 7.95C190.139 7.95 189.314 8.45 189.314 9.35C189.314 10.2 190.189 10.475 191.514 10.675L192.914 10.9C195.339 11.3 197.714 12.025 197.714 15.05C197.714 18.025 194.964 19.325 191.389 19.325C187.864 19.325 185.339 17.825 184.889 15.15L188.614 14.7C188.889 16.125 189.889 16.8 191.414 16.8C192.789 16.8 193.664 16.2 193.664 15.225C193.664 14.4 192.739 14.025 191.314 13.8L189.789 13.55C187.639 13.225 185.364 12.45 185.364 9.55C185.364 6.9 188.139 5.45 191.264 5.45C194.439 5.45 196.864 6.9 197.314 9.375ZM199.045 14.875H203.42V19H199.045V14.875Z" fill="#030712"/>
</svg>
