<svg width="150" height="151" viewBox="0 0 150 151" fill="none" xmlns="http://www.w3.org/2000/svg">
<path d="M0 0L150 47.8916V150H0V0Z" fill="#030712"/>
<path d="M60 105.402C60 96.6106 61.6019 88.8255 64.8057 82.0467C68.1036 75.2679 72.5324 70.0249 78.0919 66.3177C83.7456 62.5047 90.0118 60.5981 96.8904 60.5981C101.979 60.5981 106.973 61.8692 111.873 64.4112C116.867 66.8474 120.824 70.1308 123.746 74.2617L123.5 27H139.5L140 149.57H123.746V136.383C121.107 140.62 117.432 144.115 112.721 146.869C108.104 149.623 102.78 151 96.7491 151C89.9647 151 83.7456 149.093 78.0919 145.28C72.5324 141.361 68.1036 135.96 64.8057 129.075C61.6019 122.084 60 114.193 60 105.402ZM123.746 105.72C123.746 99.6822 122.615 94.4393 120.353 89.9907C118.186 85.5421 115.312 82.1526 111.731 79.8224C108.151 77.4922 104.287 76.3271 100.141 76.3271C95.9953 76.3271 92.1319 77.4922 88.5512 79.8224C84.9705 82.0467 82.0495 85.3832 79.788 89.8318C77.6207 94.1745 76.5371 99.3645 76.5371 105.402C76.5371 111.439 77.6207 116.735 79.788 121.29C82.0495 125.844 84.9705 129.34 88.5512 131.776C92.2261 134.106 96.0895 135.271 100.141 135.271C104.287 135.271 108.151 134.106 111.731 131.776C115.312 129.445 118.186 126.056 120.353 121.607C122.615 117.053 123.746 111.757 123.746 105.72Z" fill="white"/>
<path d="M26.5156 57.2974V88.6595H63.3906V102.957H26.5156V135.703H68V150H9V43H68V57.2974H26.5156Z" fill="white"/>
</svg>
