<svg width="145" height="30" viewBox="0 0 145 30" fill="none" xmlns="http://www.w3.org/2000/svg">
<path d="M144.324 20.7528C144.324 23.377 142.162 25.5241 139.519 25.5241C136.876 25.5241 134.714 23.377 134.714 20.7528C134.714 18.1285 136.876 15.9814 139.519 15.9814C142.162 15.9814 144.324 18.1285 144.324 20.7528Z" fill="#AEB2BA"/>
<path d="M53.208 6.44043V10.1382H45.3995V14.1938H51.2259V17.832H45.3995V25.5854H40.6543V6.44043H53.208Z" fill="#AEB2BA"/>
<path d="M70.0863 19.0869H59.4547C59.5147 20.0411 59.8151 20.7568 60.3557 21.234C60.8962 21.7111 61.557 22.0093 62.3378 22.0093C63.4791 22.0093 64.32 21.5322 64.8005 20.5183H69.786C69.5457 21.5322 69.0652 22.4268 68.4045 23.2021C67.7438 23.9775 66.9028 24.6335 65.8817 25.1107C64.8606 25.5878 63.7193 25.7667 62.518 25.7667C61.0164 25.7667 59.6949 25.4685 58.4936 24.8125C57.2923 24.1564 56.3913 23.2618 55.7306 22.0689C55.0699 20.8761 54.7695 19.5044 54.7695 17.9537C54.7695 16.3433 55.0699 14.9716 55.7306 13.8384C56.3913 12.6456 57.2923 11.7509 58.4936 11.0949C59.6349 10.4388 61.0164 10.1406 62.518 10.1406C64.0197 10.1406 65.3411 10.4388 66.4824 11.0949C67.6236 11.6913 68.5246 12.5859 69.1853 13.7191C69.846 14.8523 70.1464 16.2241 70.1464 17.7151C70.1464 18.1326 70.0863 18.6097 70.0863 19.0869ZM65.3411 16.4626C65.3411 15.6873 65.0408 15.0312 64.5002 14.5541C63.9596 14.077 63.2388 13.8384 62.458 13.8384C61.6771 13.8384 61.0164 14.077 60.4758 14.4945C59.9352 14.9716 59.5748 15.568 59.4547 16.403H65.3411V16.4626Z" fill="#AEB2BA"/>
<path d="M75.2504 25.1107C74.2293 24.6336 73.3884 24.0372 72.7877 23.2618C72.1871 22.4865 71.8267 21.5919 71.7666 20.578H76.3917C76.4517 21.1147 76.692 21.5322 77.1125 21.8304C77.5329 22.1286 78.0735 22.3076 78.7342 22.3076C79.3349 22.3076 79.7554 22.1883 80.1158 21.9497C80.4161 21.7112 80.5963 21.4129 80.5963 21.0551C80.5963 20.6376 80.356 20.2798 79.9356 20.1008C79.455 19.9219 78.7342 19.6833 77.7131 19.3851C76.6319 19.1466 75.6709 18.8484 74.9501 18.6098C74.2293 18.3116 73.5686 17.8941 73.028 17.2977C72.4874 16.7013 72.2471 15.8663 72.2471 14.8524C72.2471 13.9578 72.4874 13.1824 72.9679 12.4667C73.4484 11.751 74.1692 11.1546 75.1303 10.7371C76.0913 10.3196 77.1725 10.0811 78.494 10.0811C80.4161 10.0811 81.9177 10.5582 83.059 11.5125C84.1402 12.4667 84.8009 13.7192 84.9811 15.2699H80.6563C80.5963 14.7331 80.356 14.3156 79.9356 14.0174C79.5151 13.7192 79.0346 13.5403 78.3738 13.5403C77.8332 13.5403 77.4128 13.6595 77.1125 13.8385C76.8121 14.077 76.692 14.3156 76.692 14.6735C76.692 15.0909 76.9323 15.4488 77.4128 15.6277C77.8933 15.8663 78.6141 16.0452 79.5752 16.2838C80.7164 16.582 81.6174 16.8802 82.3382 17.1188C83.059 17.417 83.6596 17.8345 84.2002 18.4905C84.7408 19.1466 85.0412 19.9816 85.0412 20.9955C85.0412 21.8901 84.8009 22.6654 84.2603 23.3811C83.7798 24.0968 83.059 24.6336 82.0979 25.0511C81.1369 25.4686 80.0557 25.6475 78.7943 25.6475C77.5329 25.7668 76.3316 25.5282 75.2504 25.1107Z" fill="#AEB2BA"/>
<path d="M96.4538 21.5887V25.525H94.0512C92.3693 25.525 91.0479 25.1075 90.0868 24.2726C89.1258 23.4376 88.6452 22.0658 88.6452 20.2169V14.1931H86.7832V10.3164H88.6452V6.61865H93.3304V10.3164H96.3937V14.1931H93.3304V20.2766C93.3304 20.7537 93.4505 21.0519 93.6307 21.2308C93.871 21.4098 94.2314 21.529 94.7119 21.529H96.4538V21.5887Z" fill="#AEB2BA"/>
<path d="M106.788 14.1961H104.265V25.5279H99.5798V14.1961H97.8979V10.3194H99.5798V9.90186C99.5798 8.05297 100.12 6.62157 101.202 5.60767C102.283 4.6534 103.844 4.17627 105.947 4.17627C106.307 4.17627 106.547 4.17627 106.728 4.17627V8.11261C105.827 8.05297 105.226 8.17225 104.806 8.47046C104.445 8.76867 104.265 9.30544 104.265 10.1404V10.2597H106.788V14.1961Z" fill="#AEB2BA"/>
<path d="M124.082 10.3188V25.5274H119.397V23.44C118.916 24.096 118.256 24.6328 117.475 25.0503C116.634 25.4678 115.733 25.6467 114.772 25.6467C113.57 25.6467 112.549 25.4082 111.648 24.8714C110.747 24.3346 110.027 23.6189 109.546 22.605C109.065 21.6507 108.825 20.4579 108.825 19.1458V10.3188H113.51V18.609C113.51 19.6229 113.751 20.3983 114.291 20.9947C114.832 21.5315 115.553 21.8297 116.454 21.8297C117.355 21.8297 118.075 21.5315 118.616 20.9947C119.157 20.4579 119.397 19.6229 119.397 18.609V10.3188H124.082Z" fill="#AEB2BA"/>
<path d="M132.195 5.37012H127.51V25.529H132.195V5.37012Z" fill="#AEB2BA"/>
<path d="M31.0418 4.29419V9.9005C31.0418 12.2862 29.1196 14.1947 26.717 14.1947H21.0708C18.6682 14.1947 16.7461 12.2862 16.7461 9.9005V4.29419C16.7461 1.90853 18.6682 0 21.0708 0H26.717C29.0596 0 31.0418 1.90853 31.0418 4.29419Z" fill="#AEB2BA"/>
<path d="M31.0426 22.841C31.0426 24.8092 30.2617 26.5984 28.9403 27.9105C27.4387 29.4016 25.2763 30.2366 22.9337 29.9383C19.7502 29.5209 17.1674 26.9563 16.7469 23.7953C16.4466 21.4692 17.2875 19.3221 18.7892 17.8311C20.1106 16.519 21.9126 15.7437 23.8948 15.7437C25.8769 15.7437 27.6789 16.519 29.0004 17.8311C30.2017 19.0836 31.0426 20.8728 31.0426 22.841Z" fill="#AEB2BA"/>
<path d="M15.1838 4.29419V9.9005C15.1838 12.2862 13.2617 14.1947 10.8591 14.1947H5.21292C2.81029 14.1947 0.888184 12.2862 0.888184 9.9005V4.29419C0.888184 1.90853 2.81029 0 5.21292 0H10.8591C13.2617 0 15.1838 1.90853 15.1838 4.29419Z" fill="#AEB2BA"/>
<path d="M15.1838 20.0392V25.6455C15.1838 28.0311 13.2617 29.9397 10.8591 29.9397H5.21292C2.81029 29.9397 0.888184 28.0311 0.888184 25.6455V20.0392C0.888184 17.6535 2.81029 15.745 5.21292 15.745H10.8591C13.2617 15.6853 15.1838 17.6535 15.1838 20.0392Z" fill="#AEB2BA"/>
</svg>
