<svg width="384" height="400" viewBox="0 0 384 400" fill="none" xmlns="http://www.w3.org/2000/svg">
<g clip-path="url(#clip0_243_1314)">
<rect width="384" height="400" rx="20" fill="#213C71"/>
<path d="M273 206.523C273 209.497 270.573 211.93 267.606 211.93C264.64 211.93 262.213 209.497 262.213 206.523C262.213 203.549 264.64 201.115 267.606 201.115C270.573 201.115 273 203.549 273 206.523Z" fill="#FFCB47"/>
<path d="M170.723 190.3V194.491H161.959V199.087H168.498V203.211H161.959V211.998H156.632V190.3H170.723Z" fill="white"/>
<path d="M189.668 204.63H177.735C177.802 205.711 178.139 206.522 178.746 207.063C179.353 207.604 180.095 207.942 180.971 207.942C182.252 207.942 183.196 207.401 183.735 206.252H189.331C189.061 207.401 188.522 208.415 187.781 209.294C187.039 210.172 186.095 210.916 184.949 211.457C183.803 211.998 182.522 212.2 181.173 212.2C179.488 212.2 178.005 211.862 176.656 211.119C175.308 210.375 174.296 209.361 173.555 208.009C172.813 206.658 172.476 205.103 172.476 203.346C172.476 201.52 172.813 199.966 173.555 198.682C174.296 197.33 175.308 196.316 176.656 195.572C177.937 194.829 179.488 194.491 181.173 194.491C182.859 194.491 184.342 194.829 185.623 195.572C186.904 196.248 187.915 197.262 188.657 198.546C189.399 199.831 189.736 201.385 189.736 203.075C189.736 203.548 189.668 204.089 189.668 204.63ZM184.342 201.656C184.342 200.777 184.005 200.033 183.398 199.493C182.791 198.952 181.982 198.682 181.106 198.682C180.229 198.682 179.488 198.952 178.881 199.425C178.274 199.966 177.87 200.642 177.735 201.588H184.342V201.656Z" fill="white"/>
<path d="M195.467 211.457C194.32 210.916 193.377 210.24 192.702 209.362C192.028 208.483 191.624 207.469 191.556 206.32H196.748C196.815 206.928 197.085 207.401 197.557 207.739C198.029 208.077 198.635 208.28 199.377 208.28C200.051 208.28 200.523 208.145 200.928 207.875C201.265 207.604 201.467 207.266 201.467 206.861C201.467 206.387 201.197 205.982 200.725 205.779C200.186 205.576 199.377 205.306 198.231 204.968C197.017 204.698 195.938 204.36 195.129 204.089C194.32 203.751 193.579 203.278 192.972 202.602C192.365 201.926 192.096 200.98 192.096 199.831C192.096 198.817 192.365 197.938 192.905 197.127C193.444 196.316 194.253 195.64 195.332 195.167C196.41 194.694 197.624 194.423 199.107 194.423C201.265 194.423 202.95 194.964 204.231 196.046C205.445 197.127 206.186 198.547 206.389 200.304H201.534C201.467 199.696 201.197 199.222 200.725 198.885C200.253 198.547 199.714 198.344 198.972 198.344C198.366 198.344 197.894 198.479 197.557 198.682C197.219 198.952 197.085 199.222 197.085 199.628C197.085 200.101 197.354 200.507 197.894 200.71C198.433 200.98 199.242 201.183 200.321 201.453C201.602 201.791 202.613 202.129 203.422 202.399C204.231 202.737 204.905 203.211 205.512 203.954C206.119 204.698 206.456 205.644 206.456 206.793C206.456 207.807 206.186 208.686 205.58 209.497C205.04 210.308 204.231 210.916 203.152 211.389C202.074 211.863 200.86 212.065 199.444 212.065C198.029 212.201 196.68 211.93 195.467 211.457Z" fill="white"/>
<path d="M219.266 207.469V211.93H216.569C214.681 211.93 213.198 211.457 212.119 210.511C211.041 209.564 210.501 208.01 210.501 205.914V199.087H208.411V194.694H210.501V190.503H215.76V194.694H219.199V199.087H215.76V205.982C215.76 206.523 215.895 206.861 216.097 207.063C216.367 207.266 216.771 207.401 217.311 207.401H219.266V207.469Z" fill="white"/>
<path d="M230.862 199.087H228.031V211.93H222.772V199.087H220.884V194.694H222.772V194.22C222.772 192.125 223.379 190.503 224.592 189.354C225.806 188.272 227.559 187.731 229.918 187.731C230.323 187.731 230.593 187.731 230.795 187.731V192.193C229.784 192.125 229.109 192.26 228.637 192.598C228.233 192.936 228.031 193.545 228.031 194.491V194.626H230.862V199.087Z" fill="white"/>
<path d="M250.279 194.694V211.93H245.02V209.564C244.481 210.308 243.739 210.916 242.863 211.39C241.919 211.863 240.908 212.065 239.829 212.065C238.481 212.065 237.334 211.795 236.323 211.187C235.312 210.578 234.503 209.767 233.963 208.618C233.424 207.537 233.154 206.185 233.154 204.698V194.694H238.413V204.089C238.413 205.238 238.683 206.117 239.29 206.793C239.896 207.401 240.706 207.739 241.717 207.739C242.728 207.739 243.537 207.401 244.144 206.793C244.751 206.185 245.02 205.238 245.02 204.089V194.694H250.279Z" fill="white"/>
<path d="M259.381 189.083H254.122V211.93H259.381V189.083Z" fill="white"/>
<path d="M145.845 187.867V194.221C145.845 196.924 143.688 199.087 140.991 199.087H134.653C131.957 199.087 129.799 196.924 129.799 194.221V187.867C129.799 185.163 131.957 183 134.653 183H140.991C143.62 183 145.845 185.163 145.845 187.867Z" fill="white"/>
<path d="M145.845 208.888C145.845 211.119 144.969 213.147 143.485 214.634C141.8 216.324 139.373 217.27 136.743 216.932C133.17 216.459 130.271 213.552 129.799 209.97C129.462 207.334 130.406 204.9 132.091 203.211C133.575 201.723 135.597 200.845 137.822 200.845C140.047 200.845 142.07 201.723 143.553 203.211C144.901 204.63 145.845 206.658 145.845 208.888Z" fill="#FFCB47"/>
<path d="M128.046 187.867V194.221C128.046 196.924 125.889 199.087 123.192 199.087H116.854C114.157 199.087 112 196.924 112 194.221V187.867C112 185.163 114.157 183 116.854 183H123.192C125.889 183 128.046 185.163 128.046 187.867Z" fill="white"/>
<path d="M128.046 205.712V212.065C128.046 214.769 125.889 216.932 123.192 216.932H116.854C114.157 216.932 112 214.769 112 212.065V205.712C112 203.008 114.157 200.845 116.854 200.845H123.192C125.889 200.777 128.046 203.008 128.046 205.712Z" fill="white"/>
</g>
<defs>
<clipPath id="clip0_243_1314">
<rect width="384" height="400" rx="20" fill="white"/>
</clipPath>
</defs>
</svg>
