<svg width="20" height="20" viewBox="0 0 20 20" fill="none" xmlns="http://www.w3.org/2000/svg">
<g id="Group">
<path id="Vector" d="M19.9437 5.8767C19.8957 4.81185 19.7237 4.08327 19.4796 3.44676C19.2236 2.79023 18.8835 2.22978 18.3274 1.67734C17.7713 1.1249 17.2152 0.776621 16.559 0.52442C15.9229 0.276221 15.1948 0.108086 14.1305 0.060048C13.0623 0.0120096 12.7223 0 10.0097 0C7.29317 0 6.95311 0.0120096 5.88889 0.060048C4.82468 0.108086 4.09654 0.280224 3.46041 0.52442C2.80028 0.780625 2.24016 1.1209 1.68805 1.67734C1.13594 2.23379 0.787874 2.79023 0.535824 3.44676C0.291775 4.08327 0.11974 4.81185 0.0717308 5.8767C0.0237211 6.94556 0.0117188 7.28583 0.0117188 10C0.0117188 12.7182 0.0237211 13.0584 0.0717308 14.1233C0.11974 15.1882 0.291775 15.9167 0.535824 16.5532C0.791875 17.2098 1.13194 17.7702 1.68805 18.3227C2.24016 18.8791 2.80028 19.2234 3.45641 19.4756C4.09253 19.7238 4.82068 19.8919 5.88489 19.94C6.95311 19.988 7.29317 20 10.0057 20C12.7223 20 13.0623 19.988 14.1265 19.94C15.1908 19.8919 15.9189 19.7198 16.555 19.4756C17.2112 19.2194 17.7713 18.8791 18.3234 18.3227C18.8755 17.7662 19.2236 17.2098 19.4756 16.5532C19.7237 15.9167 19.8917 15.1882 19.9397 14.1233C19.9877 13.0544 19.9997 12.7142 19.9997 10C19.9997 7.28583 19.9917 6.94155 19.9437 5.8767ZM18.1473 14.0432C18.1033 15.02 17.9393 15.5524 17.8033 15.9007C17.6232 16.3651 17.4032 16.7014 17.0511 17.0536C16.6991 17.4059 16.367 17.6181 15.8989 17.8062C15.5468 17.9424 15.0147 18.1065 14.0425 18.1505C12.9903 18.1986 12.6743 18.2106 10.0017 18.2106C7.32918 18.2106 7.01312 18.1986 5.96091 18.1505C4.98471 18.1065 4.45261 17.9424 4.10454 17.8062C3.64044 17.6261 3.30438 17.4059 2.95231 17.0536C2.60024 16.7014 2.38819 16.3691 2.20016 15.9007C2.06413 15.5484 1.9001 15.016 1.85609 14.0432C1.80808 12.9904 1.79608 12.6741 1.79608 10C1.79608 7.32586 1.80808 7.00961 1.85609 5.95677C1.9001 4.97998 2.06413 4.44756 2.20016 4.09928C2.38019 3.63491 2.60024 3.29864 2.95231 2.94636C3.30438 2.59408 3.63644 2.38191 4.10454 2.19376C4.45661 2.05765 4.98871 1.89351 5.96091 1.84948C7.01312 1.80144 7.32918 1.78943 10.0017 1.78943C12.6743 1.78943 12.9903 1.80144 14.0425 1.84948C15.0187 1.89351 15.5508 2.05765 15.8989 2.19376C16.363 2.3739 16.6991 2.59408 17.0511 2.94636C17.4032 3.29864 17.6152 3.63091 17.8033 4.09928C17.9393 4.45156 18.1033 4.98399 18.1473 5.95677C18.1954 7.00961 18.2074 7.32586 18.2074 10C18.2074 12.6741 18.1914 12.9904 18.1473 14.0432Z" fill="white"/>
<path id="Vector_2" d="M10.0013 4.85986C7.16072 4.85986 4.86426 7.1617 4.86426 9.99998C4.86426 12.8422 7.16472 15.1401 10.0013 15.1401C12.8379 15.1401 15.1383 12.8342 15.1383 9.99998C15.1383 7.1577 12.8419 4.85986 10.0013 4.85986ZM10.0013 13.3346C8.16092 13.3346 6.66862 11.8414 6.66862 9.99998C6.66862 8.1585 8.16092 6.66531 10.0013 6.66531C11.8417 6.66531 13.334 8.1585 13.334 9.99998C13.334 11.8414 11.8417 13.3346 10.0013 13.3346Z" fill="white"/>
<path id="Vector_3" d="M15.3389 5.86091C16.0018 5.86091 16.5392 5.32322 16.5392 4.65995C16.5392 3.99667 16.0018 3.45898 15.3389 3.45898C14.676 3.45898 14.1387 3.99667 14.1387 4.65995C14.1387 5.32322 14.676 5.86091 15.3389 5.86091Z" fill="white"/>
</g>
</svg>
