<svg width="112" height="31" viewBox="0 0 112 31" fill="none" xmlns="http://www.w3.org/2000/svg">
<path fill-rule="evenodd" clip-rule="evenodd" d="M63.9773 22.884C63.9363 23.1686 63.8453 23.416 63.715 23.6351C63.5812 23.8542 63.3867 24.0274 63.1333 24.1582C62.8817 24.2854 62.5427 24.3526 62.1215 24.3526C61.6808 24.3526 61.3346 24.2925 61.0795 24.1741C60.8225 24.0522 60.6298 23.8878 60.5031 23.6758C60.3746 23.4637 60.2925 23.2163 60.2569 22.9318C60.2212 22.6472 60.2033 22.3433 60.2033 22.0181C60.2033 21.7248 60.2229 21.4349 60.2658 21.1575C60.3086 20.8765 60.3943 20.6238 60.5281 20.4064C60.6619 20.182 60.8564 20.0053 61.108 19.8692C61.3596 19.7384 61.6951 19.6677 62.1215 19.6677C62.5605 19.6677 62.9067 19.7296 63.1618 19.8533C63.417 19.977 63.6097 20.1484 63.7382 20.3622C63.8667 20.5778 63.9487 20.827 63.9844 21.1133C64.0201 21.3961 64.038 21.7018 64.038 22.0252C64.038 22.3203 64.0166 22.6066 63.9773 22.884ZM61.7218 22.7144C61.7308 22.8929 61.7557 23.0343 61.7896 23.1421C61.8218 23.2446 61.8664 23.317 61.9163 23.3541C61.9699 23.393 62.0377 23.4124 62.1215 23.4124C62.2036 23.4124 62.2714 23.393 62.3285 23.3541C62.3856 23.317 62.4285 23.2446 62.457 23.1421C62.4873 23.036 62.5087 22.8946 62.5195 22.7144C62.5302 22.5377 62.5373 22.3079 62.5373 22.027C62.5373 21.746 62.5319 21.5145 62.5195 21.336C62.5087 21.1522 62.4873 21.009 62.457 20.9048C62.4267 20.8005 62.3838 20.7298 62.3285 20.6909C62.2714 20.6538 62.2054 20.6344 62.1215 20.6344C62.0395 20.6344 61.9699 20.6538 61.9163 20.6909C61.8646 20.7298 61.82 20.8005 61.7896 20.9048C61.7557 21.009 61.7325 21.1522 61.7218 21.336C61.7093 21.5145 61.7058 21.746 61.7058 22.027C61.7058 22.3079 61.7111 22.5377 61.7218 22.7144ZM50.7229 22.8611C50.7229 23.1014 50.7639 23.264 50.846 23.3453C50.9299 23.4248 51.0245 23.4637 51.1279 23.4637C51.2582 23.4637 51.3635 23.4089 51.4402 23.3011C51.5152 23.1951 51.5508 22.9883 51.5508 22.6844H52.9088C52.8981 23.2375 52.7553 23.651 52.4841 23.9338C52.2111 24.2094 51.7632 24.3508 51.1387 24.3508C50.7764 24.3508 50.4731 24.3084 50.2286 24.2307C49.9824 24.1511 49.7861 24.0168 49.6362 23.833C49.4863 23.6492 49.3775 23.4071 49.315 23.1067C49.2526 22.8098 49.2187 22.4511 49.2187 22.0234C49.2187 21.5922 49.2543 21.2317 49.3275 20.9331C49.4007 20.6326 49.5113 20.3923 49.6701 20.2032C49.8236 20.0176 50.0234 19.878 50.2661 19.7967C50.507 19.7084 50.7978 19.666 51.1387 19.666C51.4384 19.666 51.7025 19.7013 51.9291 19.7738C52.1522 19.8462 52.3431 19.9664 52.4948 20.1343C52.6482 20.3022 52.7624 20.5231 52.8374 20.8005C52.9105 21.0709 52.9498 21.412 52.9498 21.8202V22.2761H50.7247V22.8611H50.7229ZM51.4527 20.7475C51.3956 20.6362 51.2868 20.5814 51.1262 20.5814C50.9727 20.5814 50.8656 20.6362 50.8085 20.7475C50.7497 20.8571 50.7229 21.032 50.7229 21.2688V21.4685H51.5384V21.2688C51.5384 21.032 51.5098 20.8571 51.4527 20.7475ZM38.9442 24.0186L38.9103 23.7535C38.8121 23.955 38.6783 24.0999 38.4999 24.2024C38.3179 24.3013 38.1127 24.3526 37.8807 24.3526C37.6541 24.3526 37.4578 24.3208 37.3025 24.2642C37.1437 24.2041 37.0135 24.1193 36.9171 24.0044C36.8154 23.8878 36.744 23.7517 36.6994 23.5927C36.6584 23.4319 36.6334 23.2552 36.6334 23.0625C36.6334 22.854 36.6566 22.6702 36.6959 22.5165C36.7369 22.3627 36.8047 22.2302 36.8993 22.1153C36.9956 22.0022 37.1223 21.9068 37.2829 21.829C37.4435 21.746 37.6434 21.6806 37.8825 21.624L38.4731 21.4844C38.6337 21.4455 38.7479 21.389 38.8139 21.3165C38.8817 21.2441 38.9121 21.1345 38.9121 20.9967C38.9121 20.7228 38.7854 20.5849 38.5302 20.5849C38.3874 20.5849 38.2822 20.6238 38.2161 20.7033C38.1483 20.7793 38.1144 20.9384 38.1073 21.1716H36.8029C36.8029 20.8482 36.8618 20.5885 36.9796 20.3941C37.0956 20.1979 37.2419 20.0477 37.415 19.9399C37.5845 19.8303 37.7718 19.7596 37.9735 19.7261C38.1751 19.6889 38.3607 19.6713 38.532 19.6713C38.7943 19.6713 39.0334 19.6907 39.2564 19.7331C39.4759 19.7738 39.6651 19.848 39.8257 19.9558C39.9845 20.0636 40.1058 20.2103 40.1915 20.3941C40.2771 20.5796 40.3217 20.8164 40.3217 21.1098V23.2958C40.3217 23.5043 40.3306 23.6899 40.3467 23.8507C40.3645 24.0098 40.402 24.1476 40.4645 24.2642H39.0048C38.9763 24.1847 38.9567 24.0999 38.9442 24.0186ZM38.8014 23.1898C38.8746 23.0696 38.9103 22.884 38.9103 22.6384V22.1012C38.8514 22.1613 38.7818 22.2001 38.6926 22.2107C38.6016 22.2266 38.4999 22.2585 38.3875 22.3079C38.2715 22.3627 38.193 22.4352 38.1466 22.5271C38.1037 22.6172 38.0823 22.7409 38.0823 22.8858C38.0823 23.0343 38.1162 23.1544 38.184 23.2428C38.2483 23.3311 38.3375 23.3753 38.4499 23.3753C38.6123 23.3736 38.73 23.3135 38.8014 23.1898ZM31.8441 24.2607H30.3417V19.7844H31.8441V24.2607ZM31.8441 19.4574H30.3417V18.3494H31.8441V19.4574ZM20.8719 24.2607H19.3695V19.7844H20.8719V24.2607ZM20.8719 19.4574H19.3695V18.3494H20.8719V19.4574ZM52.2343 6.48619C52.2343 6.06029 52.5662 5.71569 52.973 5.71569C53.3834 5.71569 53.7135 6.06029 53.7135 6.48619C53.7135 6.91208 53.3816 7.25669 52.973 7.25669C52.5662 7.25845 52.2343 6.91208 52.2343 6.48619ZM53.9473 6.48619C53.9473 6.06029 54.2774 5.71569 54.6878 5.71569C55.0964 5.71569 55.4265 6.06029 55.4265 6.48619C55.4265 6.91208 55.0946 7.25669 54.6878 7.25669C54.2774 7.25845 53.9473 6.91208 53.9473 6.48619ZM65.1603 6.48619C65.1603 6.06029 65.4905 5.71569 65.8991 5.71569C66.3077 5.71569 66.6396 6.06029 66.6396 6.48619C66.6396 6.91208 66.3077 7.25669 65.8991 7.25669C65.4905 7.25845 65.1603 6.91208 65.1603 6.48619ZM66.8751 6.48619C66.8751 6.06029 67.2035 5.71569 67.6157 5.71569C68.0225 5.71569 68.3544 6.06029 68.3544 6.48619C68.3544 6.91208 68.0225 7.25669 67.6157 7.25669C67.2035 7.25845 66.8751 6.91208 66.8751 6.48619ZM74.8692 14.3007C74.8692 13.8731 75.1993 13.532 75.6079 13.532C76.0147 13.532 76.3484 13.8749 76.3484 14.3007C76.3484 14.7302 76.0147 15.0748 75.6079 15.0748C75.1975 15.073 74.8692 14.7284 74.8692 14.3007ZM70.0406 14.3007C70.0406 13.8731 70.3707 13.532 70.7794 13.532C71.188 13.532 71.5181 13.8749 71.5181 14.3007C71.5181 14.7302 71.188 15.0748 70.7794 15.0748C70.3725 15.073 70.0406 14.7284 70.0406 14.3007ZM71.8464 14.3007C71.8464 13.8731 72.1765 13.532 72.5852 13.532C72.992 13.532 73.3239 13.8749 73.3239 14.3007C73.3239 14.7302 72.992 15.0748 72.5852 15.0748C72.1765 15.073 71.8464 14.7284 71.8464 14.3007ZM37.8753 14.3007C37.8753 13.8731 38.2072 13.532 38.6141 13.532C39.0245 13.532 39.3564 13.8749 39.3564 14.3007C39.3564 14.7302 39.0227 15.0748 38.6141 15.0748C38.2072 15.073 37.8753 14.7284 37.8753 14.3007ZM39.5937 14.3007C39.5937 13.8731 39.9256 13.532 40.3324 13.532C40.7428 13.532 41.0747 13.8749 41.0747 14.3007C41.0747 14.7302 40.7428 15.0748 40.3324 15.0748C39.9256 15.073 39.5937 14.7284 39.5937 14.3007ZM7.75493 14.3007C7.75493 13.8731 8.08504 13.532 8.49367 13.532C8.90229 13.532 9.2324 13.8749 9.2324 14.3007C9.2324 14.7302 8.90229 15.0748 8.49367 15.0748C8.08504 15.073 7.75493 14.7284 7.75493 14.3007ZM9.46794 14.3007C9.46794 13.8731 9.79984 13.532 10.2102 13.532C10.6171 13.532 10.9472 13.8749 10.9472 14.3007C10.9472 14.7302 10.6171 15.0748 10.2102 15.0748C9.79984 15.073 9.46794 14.7284 9.46794 14.3007ZM3.69903 6.45968C3.69903 6.03378 4.03092 5.68918 4.43955 5.68918C4.84817 5.68918 5.17828 6.03555 5.17828 6.45968C5.17828 6.88734 4.84817 7.23018 4.43955 7.23018C4.02914 7.23018 3.69903 6.88734 3.69903 6.45968ZM5.41561 6.45968C5.41561 6.03378 5.74572 5.68918 6.15434 5.68918C6.56296 5.68918 6.89486 6.03555 6.89486 6.45968C6.89486 6.88734 6.56296 7.23018 6.15434 7.23018C5.74572 7.23018 5.41561 6.88734 5.41561 6.45968ZM0.517471 14.3007C0.517471 13.8731 0.847582 13.532 1.25621 13.532C1.66483 13.532 1.99851 13.8749 1.99851 14.3007C1.99851 14.7302 1.66483 15.0748 1.25621 15.0748C0.849367 15.073 0.517471 14.7284 0.517471 14.3007ZM2.23226 14.3007C2.23226 13.8731 2.56416 13.532 2.96921 13.532C3.38141 13.532 3.71152 13.8749 3.71152 14.3007C3.71152 14.7302 3.38141 15.0748 2.96921 15.0748C2.56416 15.073 2.23226 14.7284 2.23226 14.3007ZM10.9436 8.51847V12.811H5.49947V9.97994H4.07375V12.811H0V8.47252H1.6684V11.1905H2.75687L2.77293 8.43011L6.96623 8.42657V11.3425H9.51612V8.51847H10.9436ZM13.6363 9.88452H14.7747V11.3389H13.6363V9.88452ZM27.9292 6.50209V12.811H16.2093C16.2093 12.811 15.9845 14.2212 15.1833 14.7037C14.4535 15.1349 12.9189 14.9953 12.9189 14.9953C12.9189 14.9953 14.0485 14.4068 14.4089 13.9332C14.7676 13.4578 14.7087 12.811 14.7087 12.811H12.207V8.56265H16.1933V11.3389H23.8215V9.86331H18.6986C18.6986 9.86331 17.7439 9.80676 17.7439 8.80122C17.7439 7.79568 18.5183 7.38216 18.5183 7.38216L20.7845 5.55664H23.404L19.8334 8.3877H24.0017C24.0017 8.3877 25.1919 8.50256 25.2508 9.38793C25.3079 10.2715 25.2508 11.3389 25.2508 11.3389H26.6212V6.50209H27.9292ZM29.2371 6.50209H30.6111V12.811H29.2371V6.50209ZM41.1497 8.56265V12.8092H37.5185C37.5185 12.8092 36.9225 14.9034 35.0756 14.9334C31.5051 14.9935 32.995 10.2733 32.995 10.2733C32.995 10.2733 32.7666 12.9824 34.5403 12.9913C36.4496 12.9966 36.148 11.3389 36.148 11.3389V6.56041H37.5791V11.3407H39.6615V8.56265H41.1497ZM49.133 9.97994H50.507V11.3407H49.133V9.97994ZM43.7121 9.97994H45.0236V11.3407H43.7121V9.97994ZM56.697 6.48619H58.005V12.811H46.3333C46.3333 12.811 46.2155 14.2919 45.0218 14.7602C43.8298 15.2303 42.9358 14.7602 42.9358 14.7602C42.9358 14.7602 43.7085 14.7019 44.4258 13.9897C45.1396 13.2846 44.8433 12.811 44.8433 12.811H42.4005V8.50433H46.3333V11.3407H47.7037V8.56265H51.9309V11.3389H53.776V8.56265H55.2641V11.3389H56.697V6.48619ZM59.2005 6.50209H60.5709V12.811H59.2005V6.50209ZM76.4145 8.50433V12.811H62.9513V8.56265H65.6903V9.68482H64.559V11.3389H69.0289V8.50433H70.3368V11.3407H72.0052V8.50433H73.3774V11.3407H74.9852V8.50433H76.4145ZM74.8228 20.7475C74.7639 20.6362 74.655 20.5814 74.4962 20.5814C74.3428 20.5814 74.2375 20.6362 74.1786 20.7475C74.1233 20.8571 74.093 21.032 74.093 21.2688V21.4685H74.9084V21.2688C74.9084 21.032 74.8799 20.8571 74.8228 20.7475ZM74.093 22.8611C74.093 23.1014 74.134 23.264 74.2161 23.3453C74.3017 23.4248 74.3945 23.4637 74.4998 23.4637C74.6336 23.4637 74.7353 23.4089 74.8103 23.3011C74.8835 23.1951 74.9227 22.9883 74.9227 22.6844H76.2771C76.2663 23.2375 76.1254 23.651 75.8542 23.9338C75.5811 24.2094 75.1333 24.3508 74.5087 24.3508C74.1483 24.3508 73.8432 24.3084 73.6005 24.2307C73.356 24.1511 73.1597 24.0168 73.0081 23.833C72.86 23.6492 72.7493 23.4071 72.6887 23.1067C72.6226 22.8098 72.5905 22.4511 72.5905 22.0234C72.5905 21.5922 72.628 21.2317 72.6976 20.9331C72.769 20.6326 72.8832 20.3923 73.0402 20.2032C73.1972 20.0176 73.3953 19.878 73.6379 19.7967C73.8788 19.7084 74.1697 19.666 74.5087 19.666C74.8103 19.666 75.0708 19.7013 75.2992 19.7738C75.524 19.8462 75.7114 19.9664 75.8666 20.1343C76.0183 20.3022 76.1325 20.5231 76.2092 20.8005C76.2824 21.0709 76.3199 21.412 76.3199 21.8202V22.2761H74.093V22.8611ZM70.0388 23.1262C70.0549 23.2021 70.0835 23.2658 70.1227 23.317C70.1941 23.423 70.3012 23.4725 70.4403 23.4725C70.5545 23.4725 70.6562 23.4407 70.7419 23.3753C70.8258 23.3099 70.8704 23.2145 70.8704 23.0926C70.8704 22.9618 70.8151 22.8575 70.708 22.7868C70.5974 22.7162 70.4653 22.6525 70.3029 22.5978L69.7837 22.4228C69.5963 22.3627 69.425 22.2779 69.2644 22.1754C69.1021 22.0676 68.9682 21.9298 68.8629 21.7566C68.7523 21.5816 68.697 21.3536 68.697 21.0727C68.697 20.8712 68.7345 20.6909 68.8041 20.5195C68.8772 20.3516 68.9861 20.205 69.1377 20.0777C69.284 19.9505 69.4696 19.8498 69.6962 19.7773C69.9211 19.7049 70.1852 19.6695 70.4939 19.6695C71.6252 19.6695 72.189 20.1396 72.189 21.078H70.8846C70.8846 20.8853 70.8507 20.7546 70.7812 20.6856C70.7133 20.6185 70.6152 20.5849 70.4903 20.5849C70.3779 20.5849 70.2887 20.615 70.2173 20.6768C70.1459 20.7369 70.1102 20.82 70.1102 20.9331C70.1102 21.0585 70.162 21.1557 70.2726 21.2176C70.3797 21.2812 70.5153 21.3377 70.6759 21.3855L71.1969 21.5445C71.3825 21.5993 71.5574 21.6788 71.718 21.7795C71.8785 21.8803 72.0142 22.0199 72.1194 22.1931C72.2283 22.3663 72.2836 22.596 72.2836 22.8823C72.2836 23.1032 72.2408 23.3064 72.1569 23.4884C72.0748 23.6669 71.9571 23.8277 71.8018 23.9585C71.6484 24.091 71.4592 24.19 71.2326 24.2554C71.006 24.3208 70.7526 24.3544 70.4671 24.3544C69.839 24.3544 69.3858 24.2307 69.111 23.9815C68.8344 23.7376 68.697 23.3683 68.697 22.8787H70.0121C70.0121 22.9671 70.021 23.0484 70.0388 23.1262ZM66.0133 19.7844V22.7427C66.0133 22.93 66.0418 23.0643 66.0989 23.1456C66.1525 23.2286 66.247 23.2711 66.3826 23.2711C66.5165 23.2711 66.611 23.2269 66.6681 23.1456C66.7235 23.0643 66.752 22.93 66.752 22.7427V19.7844H68.2545V24.2607H66.8038L66.8002 23.7129C66.6021 24.137 66.2345 24.3526 65.6903 24.3526C65.5244 24.3526 65.3673 24.3349 65.2246 24.3049C65.0836 24.2766 64.9605 24.2147 64.8534 24.1246C64.7482 24.0345 64.6625 23.9108 64.6036 23.7517C64.5429 23.5945 64.509 23.3983 64.509 23.1615V19.7844H66.0133ZM57.1627 18.3494V20.5284H58.112V18.3494H59.6644V24.2607H58.112V21.8361H57.1627V24.2607H55.6068V18.3494H57.1627ZM47.5503 21.0992C47.5324 20.9861 47.5074 20.8942 47.4735 20.8217C47.4129 20.6962 47.3022 20.6326 47.1434 20.6326C47.0613 20.6326 46.99 20.6521 46.9329 20.6945C46.874 20.7351 46.8312 20.8076 46.7955 20.9154C46.7616 21.0232 46.7401 21.1663 46.7259 21.3448C46.7134 21.5233 46.7062 21.7495 46.7062 22.0252C46.7062 22.3009 46.7152 22.5271 46.7259 22.7056C46.7419 22.8823 46.7616 23.0237 46.7955 23.1297C46.8329 23.2339 46.874 23.3082 46.9329 23.3488C46.99 23.3912 47.0613 23.4089 47.1434 23.4089C47.2826 23.4089 47.3879 23.3577 47.4628 23.2516C47.5378 23.1456 47.5752 22.953 47.5752 22.6737V22.3839H48.9314C48.9314 22.7391 48.901 23.0396 48.8404 23.2887C48.7797 23.5361 48.6744 23.7376 48.5317 23.9002C48.248 24.2006 47.7876 24.3508 47.1488 24.3508C46.8579 24.3508 46.5938 24.3261 46.3547 24.2766C46.1174 24.2271 45.9104 24.1193 45.7409 23.9567C45.5696 23.7942 45.4393 23.5644 45.3448 23.2711C45.252 22.9742 45.2038 22.5854 45.2038 22.0994C45.2038 21.571 45.2555 21.1451 45.3626 20.8235C45.4679 20.5036 45.6089 20.2598 45.7926 20.0883C45.9747 19.9151 46.1852 19.8056 46.4314 19.749C46.6759 19.6925 46.94 19.666 47.2219 19.666C47.5556 19.666 47.8322 19.7119 48.0517 19.8056C48.2729 19.8957 48.4496 20.0229 48.5798 20.1855C48.7101 20.3499 48.8029 20.5443 48.8546 20.774C48.9082 21.0037 48.9349 21.2582 48.9349 21.5392H47.5788C47.5752 21.3607 47.5663 21.214 47.5503 21.0992ZM42.4434 19.7844V20.3304C42.6503 19.8886 43.0161 19.6677 43.5515 19.6677C43.7192 19.6677 43.8726 19.6854 44.019 19.7225C44.1617 19.7561 44.2848 19.8233 44.3919 19.9169C44.4972 20.0123 44.5828 20.136 44.6417 20.2898C44.7042 20.4435 44.7363 20.6432 44.7363 20.8853V24.2607H43.2321V21.3059C43.2321 21.1186 43.2053 20.9825 43.15 20.9012C43.0929 20.8147 42.9965 20.774 42.8609 20.774C42.7289 20.774 42.6343 20.8147 42.5772 20.9012C42.5201 20.9825 42.4951 21.1186 42.4951 21.3059V24.2607H40.9909V19.7844H42.4434ZM33.9247 19.7844V20.3304C34.1317 19.8886 34.4975 19.6677 35.031 19.6677C35.1988 19.6677 35.354 19.6854 35.4967 19.7225C35.6395 19.7561 35.7626 19.8233 35.8697 19.9169C35.975 20.0123 36.057 20.136 36.1195 20.2898C36.1802 20.4435 36.2141 20.6432 36.2141 20.8853V24.2607H34.7116V21.3059C34.7116 21.1186 34.6831 20.9825 34.6278 20.9012C34.5707 20.8147 34.4779 20.774 34.3405 20.774C34.2084 20.774 34.1138 20.8147 34.0568 20.9012C34.0014 20.9825 33.9747 21.1186 33.9747 21.3059V24.2607H32.4722V19.7844H33.9247ZM29.8991 18.3494V19.6024H27.9185V20.6185H29.7742V21.8343H27.9185V24.2589H26.3661V18.3476H29.8991V18.3494ZM21.7088 19.7844V18.4696H23.2113V19.7844H23.8055V20.7899H23.2113V22.9212C23.2113 23.0484 23.2416 23.1385 23.2987 23.188C23.3576 23.241 23.4468 23.2693 23.5717 23.2693H23.8055V24.2607C23.6645 24.2607 23.5253 24.2642 23.3879 24.2731C23.2487 24.2801 23.1149 24.2854 22.9864 24.2854C22.7598 24.2854 22.5653 24.2784 22.4029 24.2572C22.2406 24.2377 22.1103 24.1882 22.0068 24.1122C21.9033 24.0363 21.8302 23.9196 21.782 23.7694C21.7356 23.6192 21.7106 23.4177 21.7106 23.1703V20.7899H21.2092V19.7844H21.7088ZM10.1371 19.7844L10.5136 23.0042L10.9704 19.7844H12.5728L13.0171 23.0042L13.4096 19.7844H14.8621L13.9467 24.2607H12.2409L11.7823 21.0903L11.3059 24.2607H9.59999L8.68103 19.7844H10.1371ZM6.14363 19.7844V22.7427C6.14363 22.93 6.1704 23.0643 6.22928 23.1456C6.28638 23.2286 6.37917 23.2711 6.51478 23.2711C6.64683 23.2711 6.74319 23.2269 6.79672 23.1456C6.85382 23.0643 6.88237 22.93 6.88237 22.7427V19.7844H8.38303V24.2607H6.93412L6.93233 23.7129C6.73426 24.137 6.36847 24.3526 5.82423 24.3526C5.6565 24.3526 5.50126 24.3349 5.36207 24.3049C5.21397 24.2766 5.09263 24.2147 4.98735 24.1246C4.87851 24.0345 4.79464 23.9108 4.73219 23.7517C4.67152 23.5945 4.6394 23.3983 4.6394 23.1615V19.7844H6.14363ZM1.55241 18.3494V20.6185L2.72297 18.3494H4.37531L2.87107 20.9331L4.5591 24.2607H2.79078L1.87896 22.1984L1.55241 22.695V24.2607H0V18.3494H1.55241ZM17.2942 24.0186L17.2586 23.7535C17.1586 23.955 17.0284 24.0999 16.8482 24.2024C16.6661 24.3013 16.4592 24.3526 16.229 24.3526C16.0006 24.3526 15.8079 24.3208 15.6508 24.2642C15.4902 24.2041 15.3635 24.1193 15.2636 24.0044C15.1637 23.8878 15.0923 23.7517 15.0477 23.5927C15.0013 23.4319 14.9781 23.2552 14.9781 23.0625C14.9781 22.854 15.0013 22.6702 15.0424 22.5165C15.0816 22.3627 15.1512 22.2302 15.2458 22.1153C15.3403 22.0022 15.467 21.9068 15.6276 21.829C15.79 21.746 15.9899 21.6806 16.2272 21.624L16.8178 21.4844C16.9802 21.4455 17.0926 21.389 17.1569 21.3165C17.2247 21.2441 17.2568 21.1345 17.2568 20.9967C17.2568 20.7228 17.1319 20.5849 16.8785 20.5849C16.7357 20.5849 16.6287 20.6238 16.5627 20.7033C16.4966 20.7793 16.4592 20.9384 16.4556 21.1716H15.1494C15.1494 20.8482 15.2083 20.5885 15.3261 20.3941C15.4421 20.1979 15.5866 20.0477 15.7597 19.9399C15.9328 19.8303 16.1183 19.7596 16.32 19.7261C16.518 19.6889 16.7072 19.6713 16.8803 19.6713C17.1408 19.6713 17.3835 19.6907 17.6012 19.7331C17.8224 19.7738 18.0134 19.848 18.1722 19.9558C18.3292 20.0636 18.4523 20.2103 18.538 20.3941C18.6254 20.5796 18.6664 20.8164 18.6664 21.1098V23.2958C18.6664 23.5043 18.6754 23.6899 18.6932 23.8507C18.7093 24.0098 18.7485 24.1476 18.8092 24.2642H17.3478C17.3264 24.1847 17.305 24.0999 17.2942 24.0186ZM17.1515 23.1898C17.2264 23.0696 17.2586 22.884 17.2586 22.6384V22.1012C17.1997 22.1613 17.1319 22.2001 17.0409 22.2107C16.9499 22.2266 16.8482 22.2585 16.7375 22.3079C16.6215 22.3627 16.5395 22.4352 16.4966 22.5271C16.4502 22.6172 16.4306 22.7409 16.4306 22.8858C16.4306 23.0343 16.4645 23.1544 16.5305 23.2428C16.5983 23.3311 16.684 23.3753 16.7964 23.3753C16.9641 23.3736 17.0801 23.3135 17.1515 23.1898Z" fill="#AEB2BA"/>
<path fill-rule="evenodd" clip-rule="evenodd" d="M83.9259 0.380371H107.997C109.717 0.380371 111.111 1.76056 111.111 3.46237V27.3001C111.111 29.0002 109.717 30.3804 107.997 30.3804H83.9259C82.2076 30.3804 80.814 29.0002 80.814 27.3001V3.46237C80.814 1.76056 82.2076 0.380371 83.9259 0.380371Z" fill="#AEB2BA"/>
<path fill-rule="evenodd" clip-rule="evenodd" d="M91.6558 11.5637H91.8645V11.9613H92.8067V11.5566H93.0297V12.3925H92.7996V12.1575H91.8538V12.3925H91.6558V11.5637Z" fill="#F9F9F9"/>
<path fill-rule="evenodd" clip-rule="evenodd" d="M91.2314 12.3878V10.8892C91.2314 10.8892 91.2868 10.7319 91.4242 10.7319H93.0337V10.974H91.4563V11.2621H93.0337V11.5007H91.4563V12.3878H91.2314Z" fill="#F9F9F9"/>
<path fill-rule="evenodd" clip-rule="evenodd" d="M90.6138 10.3688H90.8957L90.8814 10.6039C90.8814 10.6039 91.0046 10.3564 91.0991 10.3564H93.0281V10.5597L91.158 10.5579C91.158 10.5579 90.935 11.0174 90.9171 11.5405C90.8957 12.288 91.1098 12.5266 91.1098 12.5266H93.0495L93.0388 12.7687H91.0866C91.0866 12.7687 90.9903 12.7439 90.9189 12.5531V12.7298H90.6138V10.3688Z" fill="#F9F9F9"/>
<path fill-rule="evenodd" clip-rule="evenodd" d="M99.318 10.4422V18.6455H90.6138V20.4074H101.311V10.4404H99.318V10.4422ZM100.401 11.6245C100.401 11.6245 100.307 11.6828 100.282 11.8418C100.26 12.0009 100.389 12.1087 100.389 12.1087C100.389 12.1087 100.166 12.0504 100.166 11.8524C100.166 11.6545 100.401 11.6245 100.401 11.6245ZM100.026 12.6494C100.026 12.6494 100.05 12.3631 100.34 12.3631C100.63 12.3631 100.603 12.6229 100.603 12.6229V13.1672H100.026V12.6494ZM98.7488 18.7357C98.7488 18.7357 98.656 18.7958 98.631 18.9548C98.6078 19.1139 98.7381 19.2234 98.7381 19.2234C98.7381 19.2234 98.5132 19.1633 98.5132 18.9672C98.5132 18.771 98.7488 18.7357 98.7488 18.7357ZM94.8088 19.3029H94.0041V19.7271H94.7714V19.9851H92.4892V19.7165H93.6437V19.082H94.8088V19.3029ZM97.3944 20.0275C97.3944 20.0275 97.8494 19.4408 98.5364 19.4408C99.2252 19.4408 99.7498 20.0063 99.7498 20.0063L97.3944 20.0275ZM100.603 20.0222H99.9746V16.6203H100.603V20.0222ZM100.812 16.3888H99.7623V15.7897H100.812V16.3888ZM99.9746 15.6325V14.1463H100.603V15.6325H99.9746ZM100.812 13.92H99.7623V13.3227H100.812V13.92Z" fill="#F9F9F9"/>
<path fill-rule="evenodd" clip-rule="evenodd" d="M96.6949 10.4424V15.9454H90.6138V17.8169H98.6363V10.4424H96.6949ZM93.3546 17.2691H92.5284V16.4774H93.3546V17.2691ZM94.6661 17.2691H93.8364V16.4774H94.6661V17.2691ZM97.3891 12.4216C97.4497 12.2131 97.5925 12.0064 97.5925 12.0064C97.5925 12.0064 97.605 12.1195 97.6781 12.3351C97.7495 12.5524 98.2402 12.9589 98.2277 13.3388C98.2152 13.8089 97.8958 14.0104 97.6335 14.0104C97.232 14.0104 97.0019 13.7577 96.9412 13.4378C96.8555 12.9942 97.332 12.6231 97.3891 12.4216ZM96.9555 17.4476L97.2731 14.1694H97.9672L98.2705 17.4476H96.9555Z" fill="#F9F9F9"/>
<path fill-rule="evenodd" clip-rule="evenodd" d="M94.0219 10.4424V13.3494H90.6138V15.1149H95.908V10.4424H94.0219ZM94.5358 13.0031C94.6233 12.7115 94.8249 12.533 94.8249 12.533C94.8249 12.533 94.816 12.7026 94.8445 12.8122C94.8695 12.9218 94.9926 13.072 94.9926 13.072C94.9926 13.072 95.0533 12.8581 95.1461 12.7309C95.2371 12.6019 95.3388 12.5118 95.3388 12.5118C95.3388 12.5118 95.2585 12.9359 95.2942 13.1162C95.3335 13.2982 95.4048 13.5279 95.4048 13.5279L94.4573 13.5155C94.4555 13.5138 94.4484 13.2929 94.5358 13.0031ZM93.3546 14.6748H92.5284V13.8814H93.3546V14.6748ZM94.2789 14.438C94.2789 14.438 94.0969 14.2843 94.0237 14.1924C93.9506 14.1005 93.9024 13.9874 93.9024 13.9874H95.4798C95.4798 13.9874 95.4387 14.1747 95.2585 14.1924C95.0747 14.2118 94.9159 14.0298 94.634 14.1394C94.3538 14.2489 94.2789 14.438 94.2789 14.438ZM95.1283 14.7544C94.9802 14.7614 94.8695 14.6642 94.7714 14.6731C94.6697 14.6837 94.5929 14.7066 94.5929 14.7066C94.5929 14.7066 94.6411 14.5723 94.8338 14.5723C95.0265 14.5723 95.0444 14.6519 95.164 14.643C95.2835 14.636 95.3852 14.5723 95.3852 14.5723C95.3852 14.5723 95.2746 14.7438 95.1283 14.7544ZM95.155 14.5016C94.9373 14.5299 94.8677 14.3903 94.6893 14.4274C94.5091 14.4645 94.4555 14.537 94.4555 14.537C94.4555 14.537 94.5055 14.3108 94.7357 14.3108C94.9623 14.3108 94.9998 14.4009 95.1925 14.3656C95.3852 14.3285 95.5065 14.2754 95.5065 14.2754C95.5065 14.2754 95.3763 14.4751 95.155 14.5016Z" fill="#F9F9F9"/>
<path d="M104.521 7.75923C104.521 7.28739 104.134 6.90391 103.658 6.90391H103.085L101.563 5.39648H103.658C104.973 5.39648 106.042 6.4568 106.042 7.75923V15.9732L104.52 17.4806V7.75923H104.521Z" fill="#F9F9F9"/>
<path d="M95.3639 25.3668L93.8418 23.8594H103.658C104.134 23.8594 104.521 23.4759 104.521 23.0058V22.4386L106.043 20.9312V23.0058C106.043 24.3083 104.975 25.3668 103.659 25.3668H95.3639Z" fill="#F9F9F9"/>
<path d="M88.2656 25.3663C86.9505 25.3663 85.8799 24.3078 85.8799 23.0054V14.7896L87.402 13.2822V23.0036C87.402 23.4754 87.7892 23.8572 88.2656 23.8572H88.8384L90.3605 25.3646H88.2656V25.3663Z" fill="#F9F9F9"/>
<path d="M85.8799 7.75923C85.8799 6.4568 86.9505 5.39648 88.2656 5.39648H96.5594L98.0815 6.90391H88.2656C87.7892 6.90391 87.402 7.28739 87.402 7.75923V8.32474L85.8799 9.83216V7.75923Z" fill="#F9F9F9"/>
<path d="M95.9631 28.5244C95.3243 28.5244 94.7266 28.2787 94.2769 27.8316L88.4116 22.0228V19.8916L95.3529 26.766C95.5081 26.9198 95.7312 27.0099 95.9631 27.0099C96.1951 27.0099 96.4164 26.9215 96.5734 26.766L96.9785 26.3649H99.1286L97.6476 27.8316C97.1979 28.2787 96.6002 28.5244 95.9631 28.5244Z" fill="#F9F9F9"/>
<path d="M96.572 3.99683C96.4096 3.83602 96.1919 3.74589 95.9617 3.74589C95.7315 3.74589 95.5138 3.83425 95.3515 3.99683L94.9464 4.39799H92.7944L94.2755 2.93121C94.7251 2.48588 95.3247 2.24023 95.9617 2.24023C96.5987 2.24023 97.1983 2.48588 97.648 2.93121L103.513 8.74V10.873L96.572 3.99683Z" fill="#F9F9F9"/>
<path d="M100.517 22.8587L107.458 15.9843C107.794 15.6503 107.794 15.1096 107.458 14.7756L107.053 14.3744V12.2432L108.534 13.7099C109.464 14.6307 109.464 16.1292 108.534 17.0517L102.671 22.8587H100.517Z" fill="#F9F9F9"/>
<path d="M83.3906 17.0508C82.9409 16.6055 82.6929 16.0135 82.6929 15.3808C82.6929 14.7499 82.9409 14.1562 83.3906 13.7108L89.254 7.90381H91.4078L84.4665 14.7782C84.1293 15.1122 84.1293 15.653 84.4665 15.987L84.8716 16.3881V18.5194L83.3906 17.0508Z" fill="#F9F9F9"/>
</svg>
