<svg width="111" height="30" viewBox="0 0 111 30" fill="none" xmlns="http://www.w3.org/2000/svg">
<path d="M41.631 13.7521C41.631 14.7506 41.451 15.6264 41.0908 16.3795C40.7307 17.1325 40.2314 17.7627 39.593 18.2702C38.9709 18.7777 38.2342 19.1624 37.383 19.4243C36.5481 19.6699 35.6478 19.7926 34.6819 19.7926H31.809V24.9492H28.0275V7.76061H35.0503C36.0816 7.76061 36.9983 7.90794 37.8004 8.2026C38.6189 8.48089 39.3065 8.88196 39.8631 9.4058C40.436 9.92965 40.8698 10.5599 41.1645 11.2966C41.4755 12.0168 41.631 12.819 41.631 13.703V13.7521ZM37.8004 13.8257V13.7766C37.8004 12.9254 37.5221 12.2788 36.9656 11.8368C36.4253 11.3948 35.6805 11.1738 34.731 11.1738H31.809V16.4286H34.8047C35.7542 16.4286 36.4908 16.183 37.0147 15.6919C37.5385 15.1845 37.8004 14.5624 37.8004 13.8257ZM61.1762 24.9492H57.2228L55.6513 21.0941H48.3829L46.8114 24.9492H42.9562L50.3228 7.63783H53.8096L61.1762 24.9492ZM54.3007 17.7546L52.0171 12.1805L49.7335 17.7546H54.3007ZM76.254 19.8663C76.254 20.7175 76.0985 21.4788 75.7874 22.1499C75.4764 22.8047 75.0426 23.3613 74.486 23.8197C73.9294 24.2617 73.2665 24.6054 72.4971 24.851C71.7277 25.0802 70.8764 25.1948 69.9433 25.1948C68.6337 25.1948 67.3487 24.9738 66.0882 24.5318C64.8277 24.0734 63.6818 23.3777 62.6504 22.4446L64.885 19.7681C65.6707 20.4065 66.4729 20.914 67.2914 21.2905C68.1262 21.667 69.0348 21.8553 70.017 21.8553C70.8028 21.8553 71.4084 21.7161 71.8341 21.4378C72.2761 21.1432 72.4971 20.7421 72.4971 20.2346V20.1855C72.4971 19.94 72.4479 19.7272 72.3497 19.5471C72.2679 19.3506 72.096 19.1706 71.8341 19.0069C71.5885 18.8432 71.2366 18.6795 70.7782 18.5158C70.3362 18.3521 69.7551 18.1802 69.0348 18.0001C68.1672 17.7873 67.3814 17.5499 66.6775 17.288C65.9736 17.0261 65.3761 16.7069 64.885 16.3304C64.3939 15.9375 64.0092 15.4546 63.7309 14.8816C63.4689 14.3087 63.338 13.5966 63.338 12.7453V12.6962C63.338 11.9104 63.4853 11.2065 63.78 10.5845C64.0746 9.94602 64.4839 9.39762 65.0077 8.93926C65.5479 8.48089 66.1864 8.12894 66.923 7.88338C67.6597 7.63783 68.47 7.51506 69.354 7.51506C70.6145 7.51506 71.7686 7.70331 72.8163 8.07983C73.8803 8.45634 74.8544 8.99655 75.7383 9.70047L73.7739 12.5489C73.0045 12.025 72.2515 11.6158 71.5149 11.3211C70.7782 11.0101 70.0415 10.8546 69.3049 10.8546C68.5682 10.8546 68.0116 11.0019 67.6351 11.2966C67.275 11.5748 67.0949 11.9268 67.0949 12.3524V12.4015C67.0949 12.6798 67.144 12.9254 67.2423 13.1382C67.3568 13.3346 67.5533 13.5147 67.8316 13.6784C68.1099 13.8421 68.4864 13.9976 68.9611 14.1449C69.4522 14.2923 70.0661 14.4642 70.8028 14.6606C71.6704 14.8898 72.4398 15.1517 73.1109 15.4464C73.7985 15.7247 74.3714 16.0684 74.8298 16.4777C75.3045 16.8706 75.6565 17.3371 75.8857 17.8773C76.1312 18.4175 76.254 19.0642 76.254 19.8172V19.8663ZM91.9607 19.8663C91.9607 20.7175 91.8051 21.4788 91.4941 22.1499C91.1831 22.8047 90.7493 23.3613 90.1927 23.8197C89.6361 24.2617 88.9731 24.6054 88.2037 24.851C87.4343 25.0802 86.5831 25.1948 85.65 25.1948C84.3404 25.1948 83.0553 24.9738 81.7948 24.5318C80.5343 24.0734 79.3884 23.3777 78.3571 22.4446L80.5916 19.7681C81.3774 20.4065 82.1795 20.914 82.998 21.2905C83.8329 21.667 84.7414 21.8553 85.7237 21.8553C86.5094 21.8553 87.1151 21.7161 87.5407 21.4378C87.9827 21.1432 88.2037 20.7421 88.2037 20.2346V20.1855C88.2037 19.94 88.1546 19.7272 88.0564 19.5471C87.9745 19.3506 87.8027 19.1706 87.5407 19.0069C87.2952 18.8432 86.9432 18.6795 86.4849 18.5158C86.0429 18.3521 85.4617 18.1802 84.7414 18.0001C83.8738 17.7873 83.0881 17.5499 82.3842 17.288C81.6802 17.0261 81.0827 16.7069 80.5916 16.3304C80.1005 15.9375 79.7158 15.4546 79.4375 14.8816C79.1756 14.3087 79.0447 13.5966 79.0447 12.7453V12.6962C79.0447 11.9104 79.192 11.2065 79.4866 10.5845C79.7813 9.94602 80.1906 9.39762 80.7144 8.93926C81.2546 8.48089 81.8931 8.12894 82.6297 7.88338C83.3664 7.63783 84.1767 7.51506 85.0607 7.51506C86.3212 7.51506 87.4753 7.70331 88.5229 8.07983C89.587 8.45634 90.561 8.99655 91.445 9.70047L89.4806 12.5489C88.7112 12.025 87.9582 11.6158 87.2215 11.3211C86.4849 11.0101 85.7482 10.8546 85.0116 10.8546C84.2749 10.8546 83.7183 11.0019 83.3418 11.2966C82.9817 11.5748 82.8016 11.9268 82.8016 12.3524V12.4015C82.8016 12.6798 82.8507 12.9254 82.9489 13.1382C83.0635 13.3346 83.26 13.5147 83.5382 13.6784C83.8165 13.8421 84.193 13.9976 84.6678 14.1449C85.1589 14.2923 85.7728 14.4642 86.5094 14.6606C87.377 14.8898 88.1464 15.1517 88.8176 15.4464C89.5051 15.7247 90.0781 16.0684 90.5365 16.4777C91.0112 16.8706 91.3632 17.3371 91.5923 17.8773C91.8379 18.4175 91.9607 19.0642 91.9607 19.8172V19.8663ZM110.098 24.9492H105.678L101.995 19.4489H99.0239V24.9492H95.2424V7.76061H103.1C105.146 7.76061 106.734 8.2599 107.864 9.25847C109.01 10.257 109.583 11.6485 109.583 13.4328V13.482C109.583 14.8734 109.239 16.0111 108.551 16.8951C107.88 17.7627 106.996 18.4012 105.899 18.8104L110.098 24.9492ZM105.752 13.6784V13.6293C105.752 12.8108 105.49 12.1969 104.966 11.7877C104.442 11.3784 103.714 11.1738 102.781 11.1738H99.0239V16.1094H102.855C103.788 16.1094 104.5 15.8884 104.991 15.4464C105.498 15.0044 105.752 14.4151 105.752 13.6784Z" fill="#AEB2BA"/>
<path d="M0.703613 17.137L0.805538 29.0066H7.73327V20.9582L21.6906 12.7061V0.888184H14.661V9.03845L0.703613 17.137Z" fill="#A3A7AF"/>
<path d="M0.703613 17.137V8.93657L14.661 0.888184V9.03845L0.703613 17.137Z" fill="#AEB2BA"/>
<path d="M7.7334 29.0071V20.9587L14.763 16.8037V25.0338L7.7334 29.0071Z" fill="#AEB2BA"/>
</svg>
