<svg width="120" height="48" viewBox="0 0 120 48" fill="none" xmlns="http://www.w3.org/2000/svg">
<g id="Pipefy">
<path id="Vector" d="M109.398 28.8683L101.388 14.9959C101.323 14.8812 101.201 14.8104 101.068 14.8105H95.823C95.7709 14.8105 95.7297 14.8299 95.6849 14.8493C95.6691 14.8469 95.6546 14.8372 95.6388 14.8372H92.747C92.7482 14.8093 92.7494 14.0821 92.7519 14.0555C92.9603 10.3444 96.206 9.40388 97.3125 9.20632C97.4882 9.17493 97.6153 9.02112 97.6131 8.84273L97.6071 4.97652C97.6069 4.87511 97.565 4.77825 97.4911 4.70876C97.4173 4.63927 97.318 4.60329 97.2168 4.60929C95.1152 4.74382 87.8385 6.38484 87.4555 14.0555L87.4507 14.836H85.2255C85.1403 14.8363 85.0587 14.8704 84.9987 14.9309C84.9387 14.9914 84.9052 15.0732 84.9055 15.1584V18.9058C84.9055 19.084 85.0485 19.2294 85.2255 19.2294H87.104C87.2798 19.2294 87.424 19.3736 87.424 19.5494V35.8444C87.424 36.0444 87.5852 36.2056 87.784 36.2056H92.3531C92.4558 36.2043 92.553 36.1588 92.6198 36.0807C92.7009 36.0132 92.7483 35.9136 92.7495 35.808V19.5627C92.7495 19.4657 92.7894 19.3772 92.8525 19.3118C92.9143 19.2598 92.9922 19.2307 93.073 19.2294L97.4834 19.17C97.6169 19.1686 97.7407 19.2396 97.807 19.3554L103.3 28.8695C103.364 28.9813 103.366 29.1184 103.305 29.2318L96.0206 42.783C95.9589 42.8976 95.9618 43.0362 96.0283 43.1482C96.0948 43.2601 96.2152 43.329 96.3454 43.3296H101.601C101.736 43.3296 101.86 43.2548 101.924 43.1357L109.402 29.2318C109.464 29.1183 109.463 28.9806 109.398 28.8683ZM116.954 15.322L111.218 25.9971C111.154 26.1138 111.033 26.1873 110.9 26.1899C110.767 26.1924 110.643 26.1234 110.575 26.0092L107.824 21.3091C107.758 21.1974 107.756 21.0594 107.818 20.9456L111.033 14.9923C111.096 14.8743 111.217 14.7999 111.351 14.7984C112.198 14.7887 115.316 14.762 116.638 14.7766C116.767 14.7783 116.886 14.8477 116.95 14.9595C117.015 15.0713 117.017 15.209 116.954 15.322ZM78.3427 23.1877H68.0978C67.9721 23.1892 67.8547 23.1248 67.7885 23.0179C67.7223 22.911 67.7168 22.7773 67.7742 22.6653C68.3172 21.5952 69.883 19.2609 73.2257 19.2609C76.5077 19.2609 78.1027 21.5915 78.6638 22.6617C78.7212 22.7736 78.7163 22.9074 78.6507 23.0148C78.5852 23.1221 78.4685 23.1876 78.3427 23.1877ZM73.2463 13.9936C67.0458 13.9936 62.0197 19.0476 62.0197 25.2808C62.0197 31.5152 67.0458 36.568 73.2463 36.568C76.5938 36.568 80.9181 34.9197 83.3093 30.2548C83.365 30.1422 83.3587 30.009 83.2926 29.9022C83.2265 29.7955 83.1101 29.7304 82.9845 29.73H77.4882C77.3976 29.7305 77.3107 29.7661 77.2458 29.8294C76.8352 30.2214 76.3663 30.5472 75.8557 30.7953C75.1406 31.1419 74.274 31.3674 73.2245 31.3674C69.9194 31.3674 68.3244 29.1979 67.876 28.0465C67.8354 27.9361 67.8517 27.8127 67.9194 27.7165C67.9871 27.6202 68.0977 27.5633 68.2154 27.5642L83.9129 27.5666C84.0937 27.5614 84.2446 27.4269 84.2704 27.2478C84.325 26.8079 84.3989 26.3631 84.4231 25.9098C84.6153 22.8226 83.5243 19.7931 81.4081 17.5371C79.2919 15.2812 76.3382 13.999 73.2451 13.9936H73.2463ZM50.0805 31.3625C48.0006 31.8456 45.8187 31.2195 44.3115 29.7069C42.8017 28.1917 42.1776 26.0062 42.6596 23.9222C43.1637 21.6197 44.9591 19.8195 47.2602 19.3094C49.3402 18.826 51.5222 19.4522 53.0293 20.9649C54.5393 22.4801 55.1634 24.6656 54.6812 26.7497C54.1768 29.0521 52.3815 30.8521 50.0805 31.3625ZM53.5262 15.0517C48.4928 12.852 44.2327 15.0384 42.8777 15.9134C42.1675 16.374 42.199 14.8711 41.5203 14.8711H37.5329C37.4372 14.8708 37.3454 14.9086 37.2776 14.9761C37.2098 15.0437 37.1717 15.1354 37.1717 15.2311V43.0302C37.1717 43.229 37.3329 43.3914 37.5317 43.3914H42.0597C42.1553 43.3914 42.2471 43.3533 42.3146 43.2855C42.3821 43.2178 42.4199 43.1259 42.4196 43.0302V35.1099C42.4196 34.8312 42.7214 34.6555 42.9601 34.7985C43.9588 35.4045 46.2543 36.5692 49.0758 36.5692C55.6326 36.5692 60.8926 30.8874 60.2187 24.1767C59.8151 20.1687 57.207 16.6624 53.5262 15.0517ZM15.9076 31.3625C13.8277 31.8456 11.6458 31.2195 10.1386 29.7069C8.62919 28.1914 8.00557 26.006 8.48784 23.9222C8.99195 21.6197 10.7874 19.8195 13.0885 19.3094C15.1684 18.826 17.3504 19.4522 18.8575 20.9649C20.3671 22.4804 20.9907 24.6659 20.5082 26.7497C20.0041 29.0522 18.2087 30.8523 15.9076 31.3625ZM19.3544 15.0517C14.3211 12.852 10.0622 15.0384 8.70478 15.9134C7.99578 16.374 8.02608 14.8711 7.34737 14.8711H3.35996C3.16116 14.8711 3 15.0323 3 15.2311V43.0302C3 43.229 3.16119 43.3914 3.35996 43.3914H7.8867C7.98238 43.3914 8.07412 43.3533 8.14166 43.2855C8.2092 43.2178 8.24698 43.1259 8.24666 43.0302V35.1099C8.24666 34.8312 8.54844 34.6555 8.7872 34.7985C9.78708 35.4045 12.0826 36.5692 14.9028 36.5692C21.4621 36.5692 26.7196 30.8874 26.0458 24.1767C25.6422 20.1687 23.0352 16.6624 19.3544 15.0517ZM33.5528 14.8723H29.0163C28.9211 14.8717 28.8295 14.9091 28.762 14.9762C28.6944 15.0433 28.6564 15.1346 28.6564 15.2299V35.9559C28.6564 36.1559 28.8188 36.3171 29.0175 36.3171H33.554C33.753 36.3164 33.9139 36.1549 33.9139 35.9559V15.2323C33.9133 15.0331 33.752 14.8718 33.5528 14.8711" fill="#AEB2BA"/>
</g>
</svg>
