<svg width="197" height="30" viewBox="0 0 197 30" fill="none" xmlns="http://www.w3.org/2000/svg">
<path d="M111.504 25.4399H54.2524L58.8129 30.0005L111.504 25.4399Z" fill="#AEB2BA"/>
<path d="M59.5552 6.99217V7.67936C58.5854 6.98863 57.4258 6.61457 56.2352 6.6084C52.2191 6.6084 49.1758 10.2675 49.1758 14.7567C49.1758 19.2458 52.2191 22.9049 56.2352 22.9049C57.4258 22.8988 58.5854 22.5247 59.5552 21.834V22.5301H63.0804V6.99217H59.5552ZM56.2352 19.1655C54.2539 19.1655 52.8081 17.2199 52.8081 14.7567C52.8081 12.2935 54.2539 10.3568 56.2352 10.3568C58.2165 10.3568 59.6087 12.3024 59.6087 14.7567C59.6087 17.211 58.2432 19.1655 56.2352 19.1655Z" fill="#AEB2BA"/>
<path d="M87.7927 6.99219V16.0776C87.8315 16.4801 87.7857 16.8862 87.6582 17.27C87.5308 17.6538 87.3245 18.0067 87.0527 18.306C86.7808 18.6053 86.4493 18.8445 86.0796 19.0082C85.7098 19.1719 85.3099 19.2564 84.9055 19.2564C84.5012 19.2564 84.1013 19.1719 83.7315 19.0082C83.3617 18.8445 83.0303 18.6053 82.7584 18.306C82.4865 18.0067 82.2803 17.6538 82.1528 17.27C82.0254 16.8862 81.9796 16.4801 82.0184 16.0776V6.99219H78.4932V16.0776C78.4932 19.8259 81.0545 22.8693 84.8029 22.8693C85.8725 22.8567 86.9138 22.5241 87.7927 21.9143V22.4944H91.3625V6.99219H87.7927Z" fill="#AEB2BA"/>
<path d="M120.651 22.5301V13.4001C120.613 12.9976 120.658 12.5914 120.786 12.2077C120.913 11.8239 121.12 11.471 121.391 11.1717C121.663 10.8723 121.995 10.6331 122.365 10.4695C122.734 10.3058 123.134 10.2212 123.539 10.2212C123.943 10.2212 124.343 10.3058 124.713 10.4695C125.082 10.6331 125.414 10.8723 125.686 11.1717C125.958 11.471 126.164 11.8239 126.291 12.2077C126.419 12.5914 126.464 12.9976 126.426 13.4001V22.5301H129.951V13.4001C129.951 9.65173 127.39 6.6084 123.641 6.6084C122.571 6.62357 121.529 6.95932 120.651 7.57227V6.99217H117.082V22.5301H120.651Z" fill="#AEB2BA"/>
<path d="M39.0106 22.5299V16.5057H41.6166L46.1325 22.5299H50.7555L45.2936 15.2652C46.449 14.4427 47.3134 13.2743 47.7619 11.9288C48.2104 10.5832 48.2198 9.12994 47.7889 7.77863C47.358 6.42732 46.509 5.24781 45.3643 4.41027C44.2197 3.57273 42.8386 3.12044 41.4203 3.11865H35.3247V22.5299H39.0106ZM39.0106 6.80457H41.4203C42.2179 6.80457 42.9829 7.12144 43.547 7.68548C44.111 8.24952 44.4279 9.01452 44.4279 9.8122C44.4279 10.6099 44.111 11.3749 43.547 11.9389C42.9829 12.503 42.2179 12.8198 41.4203 12.8198H39.0106V6.80457Z" fill="#AEB2BA"/>
<path d="M100.822 18.8532C100.476 19.0947 100.065 19.2255 99.6437 19.2281C99.4074 19.2195 99.1754 19.1626 98.9619 19.0609C98.7485 18.9591 98.5581 18.8148 98.4026 18.6367C98.247 18.4586 98.1296 18.2505 98.0576 18.0252C97.9856 17.8 97.9604 17.5624 97.9838 17.3271V10.7228H101V7.0369H97.9838V3.16357H94.4585V7.0369H92.5933V10.7228H94.4585V17.4253C94.4335 18.1344 94.5497 18.8415 94.8004 19.5054C95.051 20.1692 95.4311 20.7766 95.9185 21.2923C96.406 21.808 96.9911 22.2216 97.6398 22.5092C98.2885 22.7968 98.9879 22.9526 99.6973 22.9675C100.913 22.9345 102.1 22.5969 103.151 21.9858L100.822 18.8532Z" fill="#AEB2BA"/>
<path d="M71.8434 14.2746L77.8943 6.992H72.95L68.7197 12.4004V1.8335H65.0874V22.521H68.7197V16.1398L73.9228 22.521H78.8582L71.8434 14.2746Z" fill="#AEB2BA"/>
<path d="M108.97 6.59912C104.892 6.59912 101.964 10.169 101.964 14.7563C101.964 19.5667 105.632 22.9224 109.318 22.9224C110.569 22.9192 111.799 22.5982 112.892 21.9893C113.984 21.3805 114.905 20.5039 115.566 19.4418L112.451 17.6569C110.041 21.2267 106.025 19.4418 105.561 15.8719H115.717C116.592 10.2672 112.977 6.59912 108.97 6.59912ZM112.049 12.7572H105.695C106.436 9.11589 111.362 8.93739 112.049 12.7572Z" fill="#AEB2BA"/>
<path d="M141.302 21.1915L135.626 7.04581C135.547 6.85914 135.487 6.66472 135.448 6.46569C135.405 6.2573 135.384 6.04488 135.385 5.83204C135.378 5.55225 135.43 5.27408 135.538 5.01572C135.646 4.75736 135.806 4.52462 136.01 4.33268C136.435 3.93542 136.999 3.72073 137.581 3.73473C137.999 3.71976 138.407 3.8705 138.714 4.15419C139.084 4.55649 139.361 5.03472 139.526 5.55538L143.382 15.9616L147.104 5.7071C147.255 5.13511 147.543 4.60837 147.942 4.17204C148.29 3.86933 148.741 3.71263 149.201 3.73473C149.753 3.70633 150.294 3.89535 150.709 4.26128C150.896 4.44557 151.042 4.66722 151.137 4.91175C151.233 5.15627 151.275 5.41818 151.262 5.68032C151.26 5.9259 151.236 6.17079 151.191 6.41214C151.137 6.66093 151.066 6.90552 150.977 7.14398L145.479 21.0308C145.296 21.5461 144.99 22.0087 144.587 22.3785C144.221 22.6576 143.77 22.7998 143.311 22.7801C142.881 22.8016 142.458 22.6722 142.115 22.4142C141.746 22.0807 141.467 21.6604 141.302 21.1915Z" fill="#AEB2BA"/>
<path d="M156.272 19.9597C156.322 20.7014 156.158 21.4418 155.799 22.0927C155.639 22.323 155.421 22.5075 155.167 22.628C154.914 22.7485 154.633 22.8009 154.353 22.7799C154.068 22.7984 153.782 22.7442 153.523 22.6225C153.264 22.5008 153.04 22.3154 152.872 22.0838C152.505 21.4389 152.337 20.6998 152.39 19.9597V12.1506C152.337 11.4105 152.505 10.6714 152.872 10.0265C153.039 9.79398 153.263 9.60851 153.522 9.48811C153.782 9.3677 154.068 9.31643 154.353 9.33929C154.633 9.31834 154.914 9.37069 155.167 9.4912C155.421 9.6117 155.639 9.7962 155.799 10.0265C156.158 10.6741 156.323 11.4117 156.272 12.1506V19.9597Z" fill="#AEB2BA"/>
<path d="M162.151 9.44649C162.587 9.05731 163.092 8.75445 163.641 8.55401C164.214 8.34999 164.818 8.25024 165.426 8.2595C166.288 8.25097 167.141 8.43668 167.921 8.80286C168.701 9.16903 169.389 9.70626 169.933 10.3747C171.18 11.8502 171.835 13.7361 171.772 15.667C171.815 17.5461 171.142 19.3713 169.889 20.772C169.349 21.4351 168.669 21.9698 167.897 22.3373C167.125 22.7047 166.281 22.8955 165.426 22.896C164.78 22.9025 164.14 22.778 163.543 22.5301C162.977 22.302 162.473 21.9444 162.071 21.4859C161.856 21.885 161.55 22.2275 161.178 22.4855C160.858 22.7052 160.478 22.8206 160.089 22.8157C159.788 22.8346 159.486 22.7766 159.213 22.647C158.94 22.5175 158.704 22.3206 158.527 22.075C158.147 21.3828 157.974 20.596 158.028 19.8081V6.74228C157.975 5.95163 158.148 5.16232 158.527 4.46649C158.716 4.23515 158.953 4.04867 159.223 3.92059C159.492 3.79252 159.787 3.72607 160.085 3.72607C160.383 3.72607 160.678 3.79252 160.947 3.92059C161.216 4.04867 161.454 4.23515 161.642 4.46649C162.037 5.15692 162.217 5.94912 162.16 6.74228L162.151 9.44649ZM161.83 15.5956C161.781 16.5747 162.074 17.5403 162.66 18.3266C162.909 18.6557 163.232 18.9226 163.602 19.1064C163.972 19.2901 164.379 19.3857 164.793 19.3857C165.206 19.3857 165.613 19.2901 165.983 19.1064C166.353 18.9226 166.676 18.6557 166.926 18.3266C167.502 17.5555 167.798 16.6111 167.765 15.6492C167.809 14.6651 167.516 13.6955 166.935 12.9004C166.685 12.5695 166.362 12.3011 165.991 12.1163C165.62 11.9315 165.211 11.8353 164.797 11.8353C164.383 11.8353 163.974 11.9315 163.603 12.1163C163.232 12.3011 162.909 12.5695 162.66 12.9004C162.09 13.6812 161.798 14.6298 161.83 15.5956Z" fill="#AEB2BA"/>
<path d="M176.385 16.729C176.535 17.4551 176.96 18.095 177.572 18.5139C178.198 18.9745 178.964 19.2046 179.741 19.1654C180.642 19.1337 181.525 18.9052 182.329 18.4961C182.888 18.1878 183.489 17.9623 184.114 17.8267C184.332 17.8161 184.549 17.8503 184.753 17.927C184.958 18.0038 185.144 18.1215 185.301 18.273C185.455 18.4196 185.576 18.5973 185.656 18.7942C185.736 18.9912 185.773 19.2029 185.765 19.4153C185.765 20.3078 185.149 21.1021 183.908 21.8071C182.575 22.5469 181.068 22.9166 179.544 22.8781C178.596 22.9016 177.653 22.729 176.775 22.3711C175.896 22.0133 175.101 21.478 174.439 20.7986C173.764 20.1113 173.235 19.2945 172.884 18.3972C172.532 17.4999 172.366 16.5408 172.396 15.5777C172.366 14.615 172.526 13.656 172.868 12.7554C173.209 11.8549 173.725 11.0307 174.386 10.3299C175.014 9.67539 175.767 9.1522 176.599 8.79073C177.432 8.42927 178.328 8.23673 179.235 8.22428C180.143 8.21182 181.044 8.37971 181.886 8.71819C182.728 9.05668 183.494 9.55902 184.14 10.1961C184.77 10.8318 185.265 11.5876 185.596 12.4187C185.927 13.2497 186.088 14.1389 186.068 15.0333C186.094 15.2678 186.071 15.5052 185.998 15.7298C185.926 15.9544 185.807 16.1611 185.649 16.3363C185.162 16.6338 184.591 16.7625 184.024 16.7022L176.385 16.729ZM176.215 14.3193H182.293C182.263 13.5397 181.945 12.799 181.401 12.2398C180.857 11.7322 180.136 11.4568 179.393 11.4723C178.641 11.4573 177.909 11.7139 177.331 12.1952C176.748 12.7598 176.358 13.4936 176.215 14.2925V14.3193Z" fill="#AEB2BA"/>
<path d="M187.196 19.7545V11.4545C187.14 10.6682 187.316 9.88279 187.704 9.19656C187.877 8.9501 188.112 8.75298 188.384 8.62464C188.656 8.49631 188.957 8.44119 189.257 8.46474C189.65 8.45763 190.036 8.56964 190.364 8.78603C190.737 9.03909 191.044 9.37906 191.256 9.77668C191.643 9.35293 192.102 9.00223 192.613 8.7414C193.06 8.5105 193.556 8.38821 194.059 8.38442C194.334 8.38117 194.607 8.43321 194.861 8.53746C195.116 8.64171 195.347 8.79605 195.54 8.9913C195.737 9.17689 195.893 9.40111 195.999 9.64991C196.105 9.8987 196.159 10.1667 196.156 10.4371C196.156 11.2582 195.398 11.9543 193.88 12.5076C193.336 12.704 192.925 12.8646 192.658 12.9896C192.236 13.1543 191.875 13.4439 191.622 13.8196C191.408 14.339 191.319 14.9016 191.364 15.4617V19.7545C191.42 20.5437 191.243 21.332 190.855 22.0214C190.679 22.267 190.443 22.4639 190.17 22.5935C189.896 22.723 189.595 22.7811 189.293 22.7622C188.992 22.7856 188.69 22.7296 188.418 22.5996C188.145 22.4695 187.911 22.2702 187.74 22.0214C187.34 21.3358 187.15 20.5473 187.196 19.7545Z" fill="#AEB2BA"/>
<path d="M152.264 5.88552C152.26 5.60062 152.315 5.31802 152.426 5.05542C152.536 4.79282 152.7 4.55586 152.906 4.35939C153.106 4.15566 153.345 3.99451 153.609 3.88561C153.873 3.77671 154.156 3.72233 154.441 3.72574C154.723 3.72232 155.002 3.7768 155.261 3.8858C155.521 3.99481 155.755 4.15601 155.949 4.35939C156.153 4.5576 156.314 4.79508 156.423 5.05742C156.532 5.31976 156.586 5.60149 156.583 5.88552C156.584 6.16713 156.53 6.44619 156.422 6.70659C156.315 6.967 156.157 7.20359 155.958 7.40272C155.759 7.60185 155.523 7.75959 155.262 7.86681C155.002 7.97403 154.723 8.02863 154.441 8.02745C154.155 8.03589 153.869 7.98473 153.604 7.87719C153.338 7.76965 153.097 7.60808 152.897 7.40272C152.692 7.20749 152.53 6.97182 152.421 6.71065C152.312 6.44948 152.258 6.1685 152.264 5.88552Z" fill="#AEB2BA"/>
<path d="M24.8462 2.87753C24.1144 2.19925 21.1514 0.0483764 14.5561 0.0216022C14.5561 0.0216022 6.77377 -0.451399 2.95401 3.02924C0.838865 5.1444 0.0981165 8.23236 0.0177945 12.0611C-0.0625275 15.8898 -0.1607 23.0652 6.75592 25.0108V27.9828C6.75592 27.9828 6.75592 29.1876 7.50559 29.4286C8.46053 29.732 9.02278 28.8128 9.94202 27.8311C10.4418 27.2866 11.1379 26.4924 11.6556 25.8855C14.5982 26.1604 17.5661 25.9432 20.4374 25.2429C21.3924 24.9305 26.8007 24.2433 27.6843 17.0589C28.6214 9.66032 27.2737 4.98376 24.8462 2.87753ZM25.6494 16.5323C24.8998 22.5208 20.5178 22.8957 19.7145 23.1545C17.244 23.7635 14.6936 23.9833 12.1553 23.806C12.1553 23.806 9.15665 27.3759 8.21956 28.3576C8.16743 28.4192 8.1014 28.4675 8.02691 28.4986C7.95243 28.5296 7.87162 28.5425 7.79118 28.5361C7.63054 28.4915 7.58591 28.3041 7.58591 28.0274C7.58591 27.7507 7.58591 23.092 7.58591 23.092C1.73133 21.4588 2.07047 15.3543 2.14187 12.1592C2.21326 8.96418 2.81122 6.34031 4.59615 4.57322C7.8001 1.67268 14.4133 2.10107 14.4133 2.10107C19.9912 2.10107 22.6686 3.8057 23.2844 4.36795C25.3638 6.13505 26.408 10.3475 25.6494 16.5323Z" fill="#AEB2BA"/>
<path d="M17.2697 12.2668C17.1733 12.2669 17.0806 12.2299 17.0107 12.1634C16.9409 12.0969 16.8994 12.0061 16.8948 11.9098C16.9183 11.6546 16.8865 11.3973 16.8016 11.1554C16.7167 10.9136 16.5807 10.6928 16.4029 10.5082C16.2251 10.3236 16.0096 10.1795 15.7711 10.0856C15.5325 9.99175 15.2766 9.95035 15.0207 9.96424C14.9213 9.95832 14.8283 9.91316 14.7621 9.83868C14.696 9.7642 14.6622 9.66651 14.6681 9.5671C14.6741 9.46769 14.7192 9.3747 14.7937 9.30859C14.8682 9.24248 14.9659 9.20865 15.0653 9.21457C15.4153 9.20378 15.7638 9.26645 16.0882 9.39851C16.4125 9.53057 16.7056 9.7291 16.9486 9.98133C17.1916 10.2336 17.379 10.5339 17.4989 10.863C17.6188 11.192 17.6684 11.5426 17.6445 11.892C17.6469 11.9412 17.6396 11.9905 17.6229 12.0369C17.6063 12.0833 17.5806 12.1259 17.5475 12.1624C17.5143 12.1989 17.4743 12.2284 17.4297 12.2494C17.3851 12.2704 17.3368 12.2824 17.2875 12.2847L17.2697 12.2668Z" fill="#AEB2BA"/>
<path d="M19.1886 12.9091C19.1394 12.908 19.0909 12.8971 19.0459 12.8772C19.0008 12.8573 18.9602 12.8287 18.9262 12.7931C18.8922 12.7574 18.8656 12.7155 18.8478 12.6695C18.8301 12.6236 18.8216 12.5746 18.8227 12.5254C18.8564 11.9524 18.775 11.3785 18.5834 10.8374C18.3918 10.2963 18.0939 9.7991 17.7072 9.37496C16.8542 8.49152 15.6863 7.98139 14.4586 7.95592C14.4052 7.95937 14.3516 7.95134 14.3015 7.93236C14.2515 7.91338 14.2061 7.8839 14.1683 7.8459C14.1306 7.8079 14.1015 7.76225 14.0829 7.71205C14.0643 7.66184 14.0567 7.60824 14.0605 7.55484C14.0644 7.50144 14.0797 7.44949 14.1053 7.40248C14.1309 7.35547 14.1663 7.31449 14.2091 7.2823C14.2519 7.25012 14.3011 7.22748 14.3533 7.2159C14.4056 7.20432 14.4597 7.20408 14.5121 7.21518C15.9295 7.25378 17.2752 7.84655 18.2605 8.86625C19.1566 9.86102 19.6219 11.1704 19.5546 12.5075C19.5596 12.5585 19.5538 12.6099 19.5377 12.6585C19.5215 12.7071 19.4954 12.7518 19.4609 12.7897C19.4264 12.8275 19.3843 12.8577 19.3374 12.8783C19.2906 12.8989 19.2399 12.9094 19.1886 12.9091Z" fill="#AEB2BA"/>
<path d="M21.1419 13.6762C21.0425 13.6762 20.9472 13.6367 20.8769 13.5664C20.8066 13.4961 20.7671 13.4007 20.7671 13.3013C20.8195 12.3186 20.6682 11.3356 20.3226 10.4141C19.9771 9.49256 19.4447 8.65245 18.759 7.94648C18.106 7.30864 17.3325 6.8073 16.4836 6.47172C15.6347 6.13614 14.7274 5.97304 13.8148 5.99197C13.7154 5.99197 13.62 5.95247 13.5497 5.88218C13.4794 5.81188 13.4399 5.71654 13.4399 5.61713C13.4399 5.51772 13.4794 5.42238 13.5497 5.35208C13.62 5.28179 13.7154 5.24229 13.8148 5.24229C14.8233 5.22532 15.8252 5.40821 16.7626 5.78044C17.7 6.15266 18.5545 6.70684 19.2767 7.411C20.0269 8.184 20.6118 9.10184 20.9954 10.1085C21.379 11.1151 21.5534 12.1894 21.5078 13.2656C21.5078 13.365 21.4683 13.4604 21.3981 13.5307C21.3278 13.601 21.2324 13.6405 21.133 13.6405L21.1419 13.6762Z" fill="#AEB2BA"/>
<path d="M15.1205 16.8889C15.2684 16.9 15.4169 16.8785 15.5556 16.8261C15.6944 16.7737 15.82 16.6916 15.9237 16.5855L16.477 15.8893C16.6665 15.6809 16.9234 15.546 17.2026 15.5084C17.4818 15.4709 17.7653 15.5331 18.0031 15.6841C18.4766 15.9572 18.9354 16.2551 19.3775 16.5766C19.797 16.8889 20.6448 17.594 20.6448 17.6029C20.8446 17.7644 20.9777 17.9939 21.0189 18.2475C21.0601 18.5011 21.0063 18.7609 20.8679 18.9773C20.5642 19.5049 20.1786 19.9808 19.7256 20.3874C19.3987 20.6843 18.9925 20.8797 18.5565 20.9497C18.5003 20.9593 18.443 20.9593 18.3869 20.9497C18.2205 20.9522 18.0548 20.9281 17.896 20.8783C16.7837 20.4937 15.7132 19.9973 14.701 19.3968C13.7589 18.8799 12.8631 18.2827 12.0236 17.6118C11.6019 17.2781 11.1996 16.9206 10.8188 16.5409H10.7741C10.3967 16.1548 10.0393 15.7497 9.70319 15.3271C9.03533 14.4854 8.43832 13.5899 7.91825 12.6497C7.31749 11.6388 6.82395 10.568 6.44568 9.45463C6.39296 9.29325 6.36586 9.12461 6.36536 8.95484C6.35998 8.89845 6.35998 8.84167 6.36536 8.78527C6.43401 8.35147 6.62967 7.94773 6.92762 7.62506C7.27091 7.10518 7.69583 6.6441 8.186 6.25957C8.4038 6.1206 8.66508 6.06654 8.92015 6.10768C9.17521 6.14882 9.40625 6.28229 9.56932 6.48269C9.56932 6.48269 10.2833 7.37516 10.5867 7.75C10.8902 8.12484 11.265 8.77635 11.4792 9.12442C11.6264 9.36563 11.6855 9.65036 11.6464 9.93021C11.6074 10.2101 11.4726 10.4677 11.265 10.6595L10.5689 11.2039C10.4626 11.3093 10.3804 11.4364 10.328 11.5766C10.2757 11.7169 10.2543 11.8668 10.2654 12.016C10.6055 13.168 11.2276 14.2169 12.0754 15.0678C12.9231 15.9187 13.9697 16.5446 15.1205 16.8889Z" fill="#AEB2BA"/>
</svg>
