<svg width="229" height="60" viewBox="0 0 229 60" fill="none" xmlns="http://www.w3.org/2000/svg">
<path d="M48.5746 41.0723C48.5746 33.2586 45.1886 29.4385 39.3717 27.1812C43.9732 24.9239 46.4909 21.1907 46.4909 14.9398C46.4909 4.43463 39.1113 0.00683594 27.9984 0.00683594H6.29363C2.90768 0.00683594 0.216309 2.95869 0.216309 6.34463V59.0439H27.0434C39.8058 59.0439 48.5746 53.3138 48.5746 41.0723ZM34.3362 16.5025C34.3362 21.4512 30.4294 22.9271 25.6543 22.9271H12.1105V10.2515H25.4807C30.9503 10.2515 34.3362 11.5538 34.3362 16.5025ZM35.8122 40.7251C35.8122 46.6288 32.1658 48.3652 26.1752 48.3652H12.1105V32.9113H26.0016C32.2526 32.9113 35.8122 34.6477 35.8122 40.7251ZM70.2794 50.5356C66.633 50.5356 64.723 48.7992 64.4625 45.1528C64.4625 41.7669 66.8066 39.5964 71.408 38.7282C74.794 38.0337 77.9195 37.0786 80.6109 35.95V40.2041C80.6109 46.7156 76.704 50.5356 70.2794 50.5356ZM72.9708 21.8853C77.7458 21.8853 80.1768 23.1876 80.4372 25.7922C80.4372 28.3099 77.9195 29.7858 72.9708 30.3936C61.337 31.5222 53.3496 34.4741 53.0892 45.5001C53.0892 55.658 60.7293 60.7803 71.7553 59.9121C84.1705 59.0439 91.8105 53.4007 91.8105 40.7251V25.0976C91.55 16.5893 85.1255 12.422 72.4499 12.422C61.8579 12.422 55.8674 16.5893 54.4783 25.0976H66.0253C66.633 22.9271 68.8903 21.8853 72.9708 21.8853ZM97.3669 0.00683594V9.03604H108.914V5.65009C109.001 1.91686 107.178 0.00683594 103.357 0.00683594H97.3669ZM97.3669 13.1165V59.0439H108.914V18.673C108.914 14.9398 107.091 13.1165 103.357 13.1165H97.3669ZM134.96 22.5798C140.082 22.5798 142.687 24.924 142.947 29.699V59.0439H154.581V29.8727C154.668 25.0976 157.272 22.7535 162.395 22.7535C167.517 22.7535 170.121 25.0976 170.382 29.8727V53.4875C170.382 57.1339 172.292 58.9571 176.112 59.2176H182.102V32.2168C182.189 19.1071 175.678 12.5956 162.568 12.5956C156.664 12.5956 152.15 13.8111 148.851 16.3288C145.552 13.7243 141.037 12.422 135.133 12.422C122.024 12.422 115.425 18.9334 115.425 32.0431V59.0439H127.146V29.699C127.233 24.924 129.837 22.5798 134.96 22.5798ZM199.293 43.9374C199.553 48.9729 203.2 50.7093 208.843 50.7093C213.705 50.7093 216.136 49.3202 216.136 46.3683C216.136 44.0242 212.142 42.1142 204.241 40.7251C194.084 38.9019 188.874 34.3872 188.788 27.1812C188.788 17.2839 196.601 12.5956 207.106 12.422C213.01 12.422 217.698 13.7243 221.171 16.3288C224.557 19.0202 226.38 22.7535 226.641 27.5285H219.348C216.836 27.4475 215.156 26.6102 214.378 25.0166L214.226 24.6635C213.444 22.6667 211.1 21.538 207.28 21.538C202.766 21.538 200.508 22.7535 200.508 25.0976C200.508 27.344 203.219 29.1121 208.718 30.2489L209.451 30.3936C217.264 31.9563 222.387 33.9531 224.904 36.2973C227.075 38.5546 228.117 41.3328 228.117 44.4583C228.117 55.7448 219.261 59.9121 207.106 59.9121C201.02 59.9121 196.336 58.6654 193.202 56.2457L192.694 55.8316C189.222 53.227 187.485 49.2333 187.485 43.9374H199.293Z" fill="#AEB2BA"/>
</svg>
