<svg width="32" height="32" viewBox="0 0 32 32" fill="none" xmlns="http://www.w3.org/2000/svg">
<g clip-path="url(#clip0_290_4231)">
<circle cx="16" cy="16" r="16" fill="#030712"/>
<path d="M16.3064 25.7234C10.7915 25.7234 7 21.7404 7 15.9191C7 10.0596 10.7149 6 16.1532 6C21.4766 6 24.9617 9.67659 24.9617 15.2298V16.5702L10.4851 16.6085C10.7532 20.5532 12.8213 22.7362 16.383 22.7362C19.1787 22.7362 21.017 21.5872 21.6298 19.4426H25C24.0809 23.4638 20.9404 25.7234 16.3064 25.7234ZM16.1532 9.02553C13.0128 9.02553 11.0213 10.9021 10.5617 14.1957H21.3617C21.3617 11.0936 19.3319 9.02553 16.1532 9.02553Z" fill="white"/>
</g>
<defs>
<clipPath id="clip0_290_4231">
<rect width="32" height="32" fill="white"/>
</clipPath>
</defs>
</svg>
