<svg width="287" height="60" viewBox="0 0 287 60" fill="none" xmlns="http://www.w3.org/2000/svg">
<path d="M286.874 41.506C286.874 46.7545 282.549 51.0487 277.263 51.0487C271.978 51.0487 267.653 46.7545 267.653 41.506C267.653 36.2576 271.978 31.9634 277.263 31.9634C282.549 31.9634 286.874 36.2576 286.874 41.506Z" fill="#AEB2BA"/>
<path d="M104.641 12.8804V20.2759H89.0241V28.3872H100.677V35.6634H89.0241V51.1703H79.5337V12.8804H104.641Z" fill="#AEB2BA"/>
<path d="M138.398 38.1737H117.134C117.255 40.0823 117.855 41.5137 118.936 42.4679C120.018 43.4222 121.339 44.0186 122.901 44.0186C125.183 44.0186 126.865 43.0643 127.826 41.0365H137.797C137.317 43.0643 136.355 44.8536 135.034 46.4043C133.713 47.9549 132.031 49.2671 129.988 50.2213C127.946 51.1756 125.664 51.5334 123.261 51.5334C120.258 51.5334 117.615 50.937 115.212 49.6249C112.81 48.3128 111.008 46.5235 109.686 44.1379C108.365 41.7522 107.764 39.0087 107.764 35.9073C107.764 32.6867 108.365 29.9432 109.686 27.6768C111.008 25.2911 112.81 23.5019 115.212 22.1898C117.495 20.8777 120.258 20.2812 123.261 20.2812C126.264 20.2812 128.907 20.8777 131.19 22.1898C133.472 23.3826 135.274 25.1719 136.596 27.4382C137.917 29.7046 138.518 32.4481 138.518 35.4302C138.518 36.2652 138.398 37.2195 138.398 38.1737ZM128.907 32.9253C128.907 31.3746 128.307 30.0625 127.225 29.1082C126.144 28.1539 124.703 27.6768 123.141 27.6768C121.579 27.6768 120.258 28.1539 119.177 28.9889C118.095 29.9432 117.375 31.136 117.134 32.806H128.907V32.9253Z" fill="#AEB2BA"/>
<path d="M148.726 50.2215C146.683 49.2672 145.002 48.0744 143.8 46.5237C142.599 44.973 141.878 43.1837 141.758 41.1559H151.008C151.128 42.2295 151.609 43.0645 152.45 43.6609C153.291 44.2573 154.372 44.6151 155.693 44.6151C156.895 44.6151 157.736 44.3766 158.456 43.8994C159.057 43.4223 159.417 42.8259 159.417 42.1102C159.417 41.2752 158.937 40.5595 158.096 40.2017C157.135 39.8438 155.693 39.3667 153.651 38.7703C151.489 38.2931 149.567 37.6967 148.125 37.2196C146.683 36.6232 145.362 35.7882 144.281 34.5954C143.2 33.4025 142.719 31.7326 142.719 29.7048C142.719 27.9155 143.2 26.3648 144.161 24.9334C145.122 23.502 146.563 22.3092 148.485 21.4742C150.408 20.6392 152.57 20.1621 155.213 20.1621C159.057 20.1621 162.06 21.1164 164.343 23.0249C166.505 24.9334 167.827 27.4384 168.187 30.5397H159.538C159.417 29.4662 158.937 28.6312 158.096 28.0348C157.255 27.4384 156.294 27.0805 154.973 27.0805C153.891 27.0805 153.05 27.3191 152.45 27.6769C151.849 28.1541 151.609 28.6312 151.609 29.3469C151.609 30.1819 152.089 30.8976 153.05 31.2554C154.011 31.7326 155.453 32.0904 157.375 32.5676C159.658 33.164 161.46 33.7604 162.901 34.2375C164.343 34.8339 165.544 35.6689 166.625 36.981C167.706 38.2931 168.307 39.9631 168.307 41.9909C168.307 43.7802 167.827 45.3308 166.745 46.7622C165.784 48.1936 164.343 49.2672 162.421 50.1022C160.499 50.9372 158.336 51.295 155.813 51.295C153.291 51.5336 150.888 51.0564 148.726 50.2215Z" fill="#AEB2BA"/>
<path d="M191.132 43.1774V51.0501H186.327C182.963 51.0501 180.32 50.2151 178.398 48.5451C176.476 46.8751 175.515 44.1316 175.515 40.4339V28.3863H171.791V20.6329H175.515V13.2373H184.885V20.6329H191.012V28.3863H184.885V40.5531C184.885 41.5074 185.126 42.1038 185.486 42.4617C185.967 42.8195 186.687 43.0581 187.648 43.0581H191.132V43.1774Z" fill="#AEB2BA"/>
<path d="M211.8 28.3916H206.754V51.0554H197.384V28.3916H194.021V20.6382H197.384V19.8032C197.384 16.1055 198.465 13.2427 200.628 11.2148C202.79 9.30632 205.914 8.35205 210.118 8.35205C210.839 8.35205 211.319 8.35205 211.68 8.35205V16.2247C209.878 16.1055 208.677 16.344 207.836 16.9404C207.115 17.5369 206.754 18.6104 206.754 20.2804V20.5189H211.8V28.3916Z" fill="#AEB2BA"/>
<path d="M246.389 20.6382V51.0554H237.018V46.8805C236.057 48.1926 234.736 49.2661 233.174 50.1011C231.492 50.9361 229.69 51.2939 227.768 51.2939C225.366 51.2939 223.323 50.8168 221.521 49.7433C219.719 48.6697 218.278 47.2383 217.317 45.2105C216.356 43.302 215.875 40.9163 215.875 38.2921V20.6382H225.245V37.2185C225.245 39.2463 225.726 40.797 226.807 41.9899C227.888 43.0634 229.33 43.6598 231.132 43.6598C232.934 43.6598 234.375 43.0634 235.457 41.9899C236.538 40.9163 237.018 39.2463 237.018 37.2185V20.6382H246.389Z" fill="#AEB2BA"/>
<path d="M262.615 10.7397H253.245V51.0574H262.615V10.7397Z" fill="#AEB2BA"/>
<path d="M60.3081 8.58838V19.801C60.3081 24.5723 56.4639 28.3894 51.6586 28.3894H40.3663C35.561 28.3894 31.7168 24.5723 31.7168 19.801V8.58838C31.7168 3.81706 35.561 0 40.3663 0H51.6586C56.3437 0 60.3081 3.81706 60.3081 8.58838Z" fill="#AEB2BA"/>
<path d="M60.3098 45.6825C60.3098 49.6188 58.7481 53.1973 56.1052 55.8216C53.1019 58.8036 48.7772 60.4736 44.092 59.8772C37.7251 59.0422 32.5594 53.913 31.7185 47.591C31.1178 42.939 32.7997 38.6448 35.803 35.6627C38.4459 33.0385 42.0498 31.4878 46.0141 31.4878C49.9785 31.4878 53.5824 33.0385 56.2253 35.6627C58.6279 38.1676 60.3098 41.7461 60.3098 45.6825Z" fill="#AEB2BA"/>
<path d="M28.5923 8.58838V19.801C28.5923 24.5723 24.7481 28.3894 19.9428 28.3894H8.65044C3.84518 28.3894 0.000976562 24.5723 0.000976562 19.801V8.58838C0.000976562 3.81706 3.84518 0 8.65044 0H19.9428C24.7481 0 28.5923 3.81706 28.5923 8.58838Z" fill="#AEB2BA"/>
<path d="M28.5923 40.0788V51.2914C28.5923 56.0628 24.7481 59.8798 19.9428 59.8798H8.65044C3.84518 59.8798 0.000976562 56.0628 0.000976562 51.2914V40.0788C0.000976562 35.3075 3.84518 31.4904 8.65044 31.4904H19.9428C24.7481 31.3712 28.5923 35.3075 28.5923 40.0788Z" fill="#AEB2BA"/>
</svg>
