<svg width="223" height="60" viewBox="0 0 223 60" fill="none" xmlns="http://www.w3.org/2000/svg">
<path fill-rule="evenodd" clip-rule="evenodd" d="M127.955 45.0074C127.873 45.5764 127.691 46.0712 127.43 46.5095C127.162 46.9478 126.773 47.2941 126.267 47.5557C125.763 47.8102 125.085 47.9445 124.243 47.9445C123.362 47.9445 122.669 47.8243 122.159 47.5875C121.645 47.3436 121.26 47.0149 121.006 46.5908C120.749 46.1667 120.585 45.6718 120.514 45.1028C120.442 44.5338 120.407 43.9259 120.407 43.2755C120.407 42.6888 120.446 42.1092 120.532 41.5543C120.617 40.9923 120.789 40.4869 121.056 40.0521C121.324 39.6033 121.713 39.2498 122.216 38.9777C122.719 38.7161 123.39 38.5748 124.243 38.5748C125.121 38.5748 125.813 38.6985 126.324 38.9459C126.834 39.1933 127.22 39.5361 127.477 39.9638C127.733 40.395 127.898 40.8933 127.969 41.4659C128.04 42.0314 128.076 42.6429 128.076 43.2897C128.076 43.8799 128.033 44.4525 127.955 45.0074ZM123.444 44.6681C123.462 45.0251 123.512 45.3078 123.579 45.5234C123.644 45.7284 123.733 45.8733 123.833 45.9475C123.94 46.0253 124.075 46.0642 124.243 46.0642C124.407 46.0642 124.543 46.0253 124.657 45.9475C124.771 45.8733 124.857 45.7284 124.914 45.5234C124.975 45.3113 125.018 45.0286 125.039 44.6681C125.06 44.3146 125.075 43.8552 125.075 43.2932C125.075 42.7312 125.064 42.2682 125.039 41.9112C125.018 41.5437 124.975 41.2574 124.914 41.0488C124.853 40.8403 124.768 40.6989 124.657 40.6212C124.543 40.547 124.411 40.5081 124.243 40.5081C124.079 40.5081 123.94 40.547 123.833 40.6212C123.729 40.6989 123.64 40.8403 123.579 41.0488C123.512 41.2574 123.465 41.5437 123.444 41.9112C123.419 42.2682 123.412 42.7312 123.412 43.2932C123.412 43.8552 123.422 44.3146 123.444 44.6681ZM101.446 44.9614C101.446 45.4421 101.528 45.7673 101.692 45.9299C101.86 46.0889 102.049 46.1667 102.256 46.1667C102.517 46.1667 102.727 46.0571 102.881 45.8415C103.03 45.6294 103.102 45.2159 103.102 44.608H105.818C105.796 45.7143 105.511 46.5413 104.968 47.1068C104.422 47.6582 103.526 47.9409 102.277 47.9409C101.553 47.9409 100.946 47.8561 100.457 47.7006C99.9648 47.5415 99.5723 47.2729 99.2725 46.9054C98.9727 46.5378 98.755 46.0536 98.6301 45.4527C98.5052 44.8589 98.4374 44.1414 98.4374 43.2861C98.4374 42.4237 98.5088 41.7027 98.6551 41.1054C98.8014 40.5045 99.0227 40.0239 99.3403 39.6457C99.6472 39.2746 100.047 38.9954 100.532 38.8328C101.014 38.6561 101.596 38.5712 102.277 38.5712C102.877 38.5712 103.405 38.6419 103.858 38.7868C104.304 38.9317 104.686 39.1721 104.99 39.5078C105.297 39.8436 105.525 40.2854 105.675 40.8403C105.821 41.3811 105.9 42.0632 105.9 42.8797V43.7915H101.449V44.9614H101.446ZM102.906 40.7343C102.791 40.5116 102.574 40.402 102.252 40.402C101.946 40.402 101.731 40.5116 101.617 40.7343C101.499 40.9534 101.446 41.3033 101.446 41.7769V42.1763H103.077V41.7769C103.077 41.3033 103.02 40.9534 102.906 40.7343ZM77.8884 47.2765L77.8206 46.7463C77.6243 47.1492 77.3567 47.4391 76.9998 47.644C76.6358 47.842 76.2254 47.9445 75.7614 47.9445C75.3082 47.9445 74.9156 47.8808 74.6052 47.7677C74.2875 47.6476 74.027 47.4779 73.8343 47.2482C73.6309 47.0149 73.4881 46.7428 73.3989 46.4247C73.3168 46.103 73.2669 45.7496 73.2669 45.3644C73.2669 44.9473 73.3133 44.5797 73.3918 44.2722C73.4739 43.9647 73.6095 43.6996 73.7986 43.4699C73.9913 43.2437 74.2447 43.0529 74.5659 42.8973C74.8871 42.7312 75.2868 42.6004 75.765 42.4873L76.9463 42.2081C77.2675 42.1304 77.4959 42.0173 77.6279 41.8724C77.7635 41.7275 77.8242 41.5083 77.8242 41.2326C77.8242 40.6848 77.5708 40.4091 77.0605 40.4091C76.775 40.4091 76.5644 40.4869 76.4324 40.6459C76.2968 40.7979 76.229 41.116 76.2147 41.5825H73.6059C73.6059 40.9357 73.7237 40.4162 73.9592 40.0274C74.1912 39.6351 74.4838 39.3347 74.83 39.1191C75.169 38.8999 75.5437 38.7586 75.947 38.6914C76.3503 38.6172 76.7214 38.5818 77.064 38.5818C77.5887 38.5818 78.0669 38.6207 78.513 38.7055C78.9519 38.7868 79.3302 38.9353 79.6514 39.1509C79.969 39.3665 80.2117 39.6598 80.383 40.0274C80.5543 40.3985 80.6435 40.8721 80.6435 41.4588V45.8309C80.6435 46.248 80.6614 46.6191 80.6935 46.9407C80.7292 47.2588 80.8041 47.5345 80.929 47.7677H78.0098C77.9527 47.6087 77.9134 47.439 77.8884 47.2765ZM77.6029 45.6188C77.7492 45.3785 77.8206 45.0074 77.8206 44.5161V43.4416C77.7029 43.5618 77.5637 43.6396 77.3852 43.6608C77.2032 43.6926 76.9998 43.7562 76.775 43.8552C76.543 43.9647 76.386 44.1096 76.2932 44.2934C76.2075 44.4737 76.1647 44.7211 76.1647 45.0109C76.1647 45.3078 76.2325 45.5481 76.3681 45.7249C76.4966 45.9016 76.675 45.9899 76.8999 45.9899C77.2246 45.9864 77.4602 45.8662 77.6029 45.6188ZM63.6883 47.7607H60.6834V38.808H63.6883V47.7607ZM63.6883 38.1542H60.6834V35.9381H63.6883V38.1542ZM41.7439 47.7607H38.739V38.808H41.7439V47.7607ZM41.7439 38.1542H38.739V35.9381H41.7439V38.1542ZM104.469 12.2116C104.469 11.3598 105.132 10.6706 105.946 10.6706C106.767 10.6706 107.427 11.3598 107.427 12.2116C107.427 13.0634 106.763 13.7526 105.946 13.7526C105.132 13.7562 104.469 13.0634 104.469 12.2116ZM107.895 12.2116C107.895 11.3598 108.555 10.6706 109.376 10.6706C110.193 10.6706 110.853 11.3598 110.853 12.2116C110.853 13.0634 110.189 13.7526 109.376 13.7526C108.555 13.7562 107.895 13.0634 107.895 12.2116ZM130.321 12.2116C130.321 11.3598 130.981 10.6706 131.798 10.6706C132.616 10.6706 133.279 11.3598 133.279 12.2116C133.279 13.0634 132.616 13.7526 131.798 13.7526C130.981 13.7562 130.321 13.0634 130.321 12.2116ZM133.75 12.2116C133.75 11.3598 134.407 10.6706 135.231 10.6706C136.045 10.6706 136.709 11.3598 136.709 12.2116C136.709 13.0634 136.045 13.7526 135.231 13.7526C134.407 13.7562 133.75 13.0634 133.75 12.2116ZM149.738 27.8408C149.738 26.9854 150.399 26.3033 151.216 26.3033C152.03 26.3033 152.697 26.989 152.697 27.8408C152.697 28.6996 152.03 29.3888 151.216 29.3888C150.395 29.3853 149.738 28.6961 149.738 27.8408ZM140.081 27.8408C140.081 26.9854 140.742 26.3033 141.559 26.3033C142.376 26.3033 143.036 26.989 143.036 27.8408C143.036 28.6996 142.376 29.3888 141.559 29.3888C140.745 29.3853 140.081 28.6961 140.081 27.8408ZM143.693 27.8408C143.693 26.9854 144.353 26.3033 145.17 26.3033C145.984 26.3033 146.648 26.989 146.648 27.8408C146.648 28.6996 145.984 29.3888 145.17 29.3888C144.353 29.3853 143.693 28.6961 143.693 27.8408ZM75.7507 27.8408C75.7507 26.9854 76.4145 26.3033 77.2282 26.3033C78.049 26.3033 78.7128 26.989 78.7128 27.8408C78.7128 28.6996 78.0455 29.3888 77.2282 29.3888C76.4145 29.3853 75.7507 28.6961 75.7507 27.8408ZM79.1875 27.8408C79.1875 26.9854 79.8513 26.3033 80.6649 26.3033C81.4857 26.3033 82.1495 26.989 82.1495 27.8408C82.1495 28.6996 81.4857 29.3888 80.6649 29.3888C79.8513 29.3853 79.1875 28.6961 79.1875 27.8408ZM15.5099 27.8408C15.5099 26.9854 16.1701 26.3033 16.9874 26.3033C17.8046 26.3033 18.4648 26.989 18.4648 27.8408C18.4648 28.6996 17.8046 29.3888 16.9874 29.3888C16.1701 29.3853 15.5099 28.6961 15.5099 27.8408ZM18.9359 27.8408C18.9359 26.9854 19.5997 26.3033 20.4205 26.3033C21.2342 26.3033 21.8944 26.989 21.8944 27.8408C21.8944 28.6996 21.2342 29.3888 20.4205 29.3888C19.5997 29.3853 18.9359 28.6961 18.9359 27.8408ZM7.39806 12.1586C7.39806 11.3068 8.06185 10.6176 8.8791 10.6176C9.69635 10.6176 10.3566 11.3104 10.3566 12.1586C10.3566 13.0139 9.69635 13.6996 8.8791 13.6996C8.05828 13.6996 7.39806 13.0139 7.39806 12.1586ZM10.8312 12.1586C10.8312 11.3068 11.4914 10.6176 12.3087 10.6176C13.1259 10.6176 13.7897 11.3104 13.7897 12.1586C13.7897 13.0139 13.1259 13.6996 12.3087 13.6996C11.4914 13.6996 10.8312 13.0139 10.8312 12.1586ZM1.03494 27.8408C1.03494 26.9854 1.69517 26.3033 2.51241 26.3033C3.32966 26.3033 3.99702 26.989 3.99702 27.8408C3.99702 28.6996 3.32966 29.3888 2.51241 29.3888C1.69874 29.3853 1.03494 28.6961 1.03494 27.8408ZM4.46453 27.8408C4.46453 26.9854 5.12832 26.3033 5.93844 26.3033C6.76282 26.3033 7.42304 26.989 7.42304 27.8408C7.42304 28.6996 6.76282 29.3888 5.93844 29.3888C5.12832 29.3853 4.46453 28.6961 4.46453 27.8408ZM21.8873 16.2762V24.8613H10.999V19.1992H8.1475V24.8613H0V16.1843H3.3368V21.6202H5.51375L5.54587 16.0995L13.9325 16.0924V21.9242H19.0323V16.2762H21.8873ZM27.2725 19.0083H29.5494V21.9171H27.2725V19.0083ZM55.8584 12.2434V24.8613H32.4187C32.4187 24.8613 31.9691 27.6817 30.3667 28.6466C28.907 29.509 25.8379 29.2298 25.8379 29.2298C25.8379 29.2298 28.0969 28.0528 28.8178 27.1056C29.5352 26.1549 29.4174 24.8613 29.4174 24.8613H24.414V16.3646H32.3866V21.9171H47.6431V18.9659H37.3972C37.3972 18.9659 35.4879 18.8528 35.4879 16.8417C35.4879 14.8306 37.0367 14.0036 37.0367 14.0036L41.569 10.3525H46.808L39.6669 16.0147H48.0035C48.0035 16.0147 50.3839 16.2444 50.5017 18.0151C50.6159 19.7823 50.5017 21.9171 50.5017 21.9171H53.2425V12.2434H55.8584ZM58.4743 12.2434H61.2223V24.8613H58.4743V12.2434ZM82.2994 16.3646V24.8577H75.037C75.037 24.8577 73.845 29.046 70.1513 29.1061C63.0102 29.2263 65.9902 19.7859 65.9902 19.7859C65.9902 19.7859 65.5333 25.2041 69.0807 25.2218C72.8993 25.2324 72.2962 21.9171 72.2962 21.9171V12.3601H75.1583V21.9206H79.3231V16.3646H82.2994ZM98.2661 19.1992H101.014V21.9206H98.2661V19.1992ZM87.4242 19.1992H90.0472V21.9206H87.4242V19.1992ZM113.394 12.2116H116.01V24.8613H92.6667C92.6667 24.8613 92.4312 27.8231 90.0437 28.7597C87.6597 29.6999 85.8718 28.7597 85.8718 28.7597C85.8718 28.7597 87.4171 28.6431 88.8517 27.2187C90.2792 25.8085 89.6868 24.8613 89.6868 24.8613H84.8011V16.2479H92.6667V21.9206H95.4075V16.3646H103.862V21.9171H107.552V16.3646H110.528V21.9171H113.394V12.2116ZM118.401 12.2434H121.142V24.8613H118.401V12.2434ZM152.829 16.2479V24.8613H125.903V16.3646H131.381V18.6089H129.118V21.9171H138.058V16.2479H140.674V21.9206H144.011V16.2479H146.755V21.9206H149.97V16.2479H152.829ZM149.646 40.7343C149.528 40.5116 149.31 40.402 148.993 40.402C148.686 40.402 148.475 40.5116 148.357 40.7343C148.247 40.9534 148.186 41.3033 148.186 41.7769V42.1763H149.817V41.7769C149.817 41.3033 149.76 40.9534 149.646 40.7343ZM148.186 44.9614C148.186 45.4421 148.268 45.7673 148.432 45.9299C148.604 46.0889 148.789 46.1667 149 46.1667C149.267 46.1667 149.471 46.0571 149.621 45.8415C149.767 45.6294 149.846 45.2159 149.846 44.608H152.554C152.533 45.7143 152.251 46.5413 151.708 47.1068C151.162 47.6582 150.267 47.9409 149.018 47.9409C148.297 47.9409 147.686 47.8561 147.201 47.7006C146.712 47.5415 146.32 47.2729 146.016 46.9054C145.72 46.5378 145.499 46.0536 145.377 45.4527C145.245 44.8589 145.181 44.1414 145.181 43.2861C145.181 42.4237 145.256 41.7027 145.395 41.1054C145.538 40.5045 145.766 40.0239 146.081 39.6457C146.395 39.2746 146.791 38.9954 147.276 38.8328C147.758 38.6561 148.34 38.5712 149.018 38.5712C149.621 38.5712 150.142 38.6419 150.599 38.7868C151.048 38.9317 151.423 39.1721 151.733 39.5078C152.037 39.8436 152.265 40.2854 152.419 40.8403C152.565 41.3811 152.64 42.0632 152.64 42.8797V43.7915H148.186V44.9614ZM140.078 45.4916C140.11 45.6436 140.167 45.7708 140.246 45.8733C140.388 46.0854 140.602 46.1843 140.881 46.1843C141.109 46.1843 141.313 46.1207 141.484 45.9899C141.652 45.8592 141.741 45.6683 141.741 45.4244C141.741 45.1629 141.63 44.9544 141.416 44.813C141.195 44.6716 140.931 44.5444 140.606 44.4348L139.568 44.0849C139.193 43.9647 138.85 43.7951 138.529 43.5901C138.204 43.3745 137.937 43.0988 137.726 42.7524C137.505 42.4025 137.394 41.9466 137.394 41.3846C137.394 40.9817 137.469 40.6212 137.608 40.2783C137.755 39.9426 137.972 39.6492 138.276 39.3947C138.568 39.1403 138.939 38.9388 139.393 38.7939C139.842 38.649 140.37 38.5783 140.988 38.5783C143.25 38.5783 144.378 39.5184 144.378 41.3952H141.769C141.769 41.01 141.702 40.7484 141.562 40.6106C141.427 40.4763 141.231 40.4091 140.981 40.4091C140.756 40.4091 140.577 40.4692 140.435 40.5929C140.292 40.7131 140.221 40.8792 140.221 41.1054C140.221 41.3563 140.324 41.5507 140.545 41.6744C140.759 41.8017 141.031 41.9148 141.352 42.0102L142.394 42.3283C142.765 42.4379 143.115 42.5969 143.436 42.7984C143.757 42.9998 144.028 43.2791 144.239 43.6254C144.457 43.9718 144.567 44.4313 144.567 45.0038C144.567 45.4456 144.482 45.8521 144.314 46.2161C144.15 46.5731 143.914 46.8948 143.604 47.1563C143.297 47.4214 142.919 47.6193 142.465 47.7501C142.012 47.8809 141.505 47.948 140.934 47.948C139.678 47.948 138.772 47.7006 138.222 47.2022C137.669 46.7145 137.394 45.9758 137.394 44.9968H140.024C140.024 45.1735 140.042 45.3361 140.078 45.4916ZM132.027 38.808V44.7246C132.027 45.0993 132.084 45.3679 132.198 45.5305C132.305 45.6966 132.494 45.7814 132.765 45.7814C133.033 45.7814 133.222 45.6931 133.336 45.5305C133.447 45.3679 133.504 45.0993 133.504 44.7246V38.808H136.509V47.7607H133.608L133.601 46.665C133.204 47.5133 132.469 47.9445 131.381 47.9445C131.049 47.9445 130.735 47.9091 130.449 47.849C130.167 47.7925 129.921 47.6688 129.707 47.4885C129.496 47.3083 129.325 47.0609 129.207 46.7428C129.086 46.4282 129.018 46.0359 129.018 45.5623V38.808H132.027ZM114.326 35.9381V40.296H116.224V35.9381H119.329V47.7607H116.224V42.9115H114.326V47.7607H111.214V35.9381H114.326ZM95.1006 41.4376C95.0649 41.2114 95.015 41.0276 94.9472 40.8827C94.8258 40.6318 94.6046 40.5045 94.2869 40.5045C94.1228 40.5045 93.98 40.5434 93.8658 40.6283C93.748 40.7095 93.6624 40.8545 93.591 41.0701C93.5232 41.2857 93.4804 41.5719 93.4518 41.9289C93.4269 42.2859 93.4126 42.7383 93.4126 43.2897C93.4126 43.841 93.4304 44.2934 93.4518 44.6504C93.484 45.0038 93.5232 45.2866 93.591 45.4987C93.666 45.7072 93.748 45.8556 93.8658 45.9369C93.98 46.0218 94.1228 46.0571 94.2869 46.0571C94.5653 46.0571 94.7759 45.9546 94.9257 45.7425C95.0756 45.5305 95.1506 45.1452 95.1506 44.5868V44.0071H97.8628C97.8628 44.7176 97.8022 45.3184 97.6808 45.8168C97.5595 46.3116 97.3489 46.7145 97.0634 47.0397C96.496 47.6405 95.5753 47.9409 94.2976 47.9409C93.7159 47.9409 93.1878 47.8915 92.7095 47.7925C92.2349 47.6935 91.8209 47.4779 91.4819 47.1528C91.1393 46.8276 90.8788 46.3681 90.6896 45.7814C90.504 45.1876 90.4077 44.4101 90.4077 43.4381C90.4077 42.3813 90.5112 41.5295 90.7253 40.8863C90.9359 40.2465 91.2178 39.7588 91.5854 39.4159C91.9494 39.0696 92.3705 38.8504 92.863 38.7373C93.3519 38.6242 93.8801 38.5712 94.444 38.5712C95.1113 38.5712 95.6645 38.6631 96.1034 38.8504C96.546 39.0307 96.8993 39.2852 97.1598 39.6103C97.4203 39.939 97.6059 40.3278 97.7094 40.7873C97.8165 41.2468 97.87 41.7557 97.87 42.3177H95.1577C95.1506 41.9607 95.1327 41.6674 95.1006 41.4376ZM84.8868 38.808V39.9002C85.3008 39.0166 86.0324 38.5748 87.103 38.5748C87.4385 38.5748 87.7454 38.6101 88.038 38.6843C88.3235 38.7515 88.5698 38.8858 88.7839 39.0731C88.9944 39.264 89.1657 39.5114 89.2835 39.8189C89.4084 40.1264 89.4727 40.5258 89.4727 41.01V47.7607H86.4642V41.8512C86.4642 41.4765 86.4107 41.2044 86.3 41.0418C86.1858 40.8686 85.9931 40.7873 85.7219 40.7873C85.4578 40.7873 85.2687 40.8686 85.1544 41.0418C85.0402 41.2044 84.9903 41.4765 84.9903 41.8512V47.7607H81.9818V38.808H84.8868ZM67.8495 38.808V39.9002C68.2635 39.0166 68.9951 38.5748 70.0621 38.5748C70.3976 38.5748 70.7081 38.6101 70.9936 38.6843C71.2791 38.7515 71.5253 38.8858 71.7394 39.0731C71.95 39.264 72.1142 39.5114 72.2391 39.8189C72.3604 40.1264 72.4282 40.5258 72.4282 41.01V47.7607H69.4233V41.8512C69.4233 41.4765 69.3662 41.2044 69.2556 41.0418C69.1414 40.8686 68.9558 40.7873 68.681 40.7873C68.4169 40.7873 68.2278 40.8686 68.1136 41.0418C68.0029 41.2044 67.9494 41.4765 67.9494 41.8512V47.7607H64.9445V38.808H67.8495ZM59.7983 35.9381V38.444H55.837V40.4763H59.5485V42.9079H55.837V47.7571H52.7322V35.9346H59.7983V35.9381ZM43.4177 38.808V36.1784H46.4226V38.808H47.611V40.8191H46.4226V45.0816C46.4226 45.3361 46.4832 45.5163 46.5974 45.6153C46.7152 45.7213 46.8937 45.7779 47.1435 45.7779H47.611V47.7607C47.329 47.7607 47.0507 47.7677 46.7759 47.7854C46.4975 47.7996 46.2299 47.8102 45.9729 47.8102C45.5197 47.8102 45.1307 47.796 44.8059 47.7536C44.4812 47.7147 44.2206 47.6158 44.0137 47.4638C43.8067 47.3118 43.6603 47.0785 43.564 46.7781C43.4712 46.4777 43.4212 46.0748 43.4212 45.58V40.8191H42.4184V38.808H43.4177ZM20.2742 38.808L21.0272 45.2477L21.9408 38.808H25.1456L26.0342 45.2477L26.8193 38.808H29.7243L27.8935 47.7607H24.4818L23.5646 41.42L22.6117 47.7607H19.2L17.3621 38.808H20.2742ZM12.2873 38.808V44.7246C12.2873 45.0993 12.3408 45.3679 12.4586 45.5305C12.5728 45.6966 12.7584 45.7814 13.0296 45.7814C13.2937 45.7814 13.4864 45.6931 13.5934 45.5305C13.7077 45.3679 13.7648 45.0993 13.7648 44.7246V38.808H16.7661V47.7607H13.8682L13.8647 46.665C13.4685 47.5133 12.7369 47.9445 11.6485 47.9445C11.313 47.9445 11.0025 47.9091 10.7242 47.849C10.4279 47.7925 10.1853 47.6688 9.97472 47.4885C9.75702 47.3083 9.58929 47.0609 9.46438 46.7428C9.34304 46.4282 9.2788 46.0359 9.2788 45.5623V38.808H12.2873ZM3.10483 35.9381V40.4763L5.44594 35.9381H8.75063L5.74215 41.1054L9.11821 47.7607H5.58156L3.75792 43.636L3.10483 44.6292V47.7607H0V35.9381H3.10483ZM34.5885 47.2765L34.5172 46.7463C34.3173 47.1492 34.0568 47.4391 33.6963 47.644C33.3323 47.842 32.9183 47.9445 32.458 47.9445C32.0012 47.9445 31.6157 47.8808 31.3017 47.7677C30.9805 47.6476 30.7271 47.4779 30.5273 47.2482C30.3274 47.0149 30.1847 46.7428 30.0954 46.4247C30.0027 46.103 29.9563 45.7496 29.9563 45.3644C29.9563 44.9473 30.0027 44.5797 30.0847 44.2722C30.1633 43.9647 30.3024 43.6996 30.4916 43.4699C30.6807 43.2437 30.9341 43.0529 31.2553 42.8973C31.5801 42.7312 31.9798 42.6004 32.4544 42.4873L33.6357 42.2081C33.9604 42.1304 34.1853 42.0173 34.3137 41.8724C34.4493 41.7275 34.5136 41.5083 34.5136 41.2326C34.5136 40.6848 34.2638 40.4091 33.757 40.4091C33.4715 40.4091 33.2574 40.4869 33.1253 40.6459C32.9933 40.7979 32.9183 41.116 32.9112 41.5825H30.2989C30.2989 40.9357 30.4166 40.4162 30.6522 40.0274C30.8841 39.6351 31.1732 39.3347 31.5194 39.1191C31.8656 38.8999 32.2367 38.7586 32.64 38.6914C33.0361 38.6172 33.4144 38.5818 33.7606 38.5818C34.2816 38.5818 34.767 38.6207 35.2024 38.7055C35.6449 38.7868 36.0267 38.9353 36.3444 39.1509C36.6584 39.3665 36.9047 39.6598 37.076 40.0274C37.2508 40.3985 37.3329 40.8721 37.3329 41.4588V45.8309C37.3329 46.248 37.3508 46.6191 37.3864 46.9407C37.4186 47.2588 37.4971 47.5345 37.6184 47.7677H34.6956C34.6528 47.6087 34.6099 47.439 34.5885 47.2765ZM34.303 45.6188C34.4529 45.3785 34.5172 45.0074 34.5172 44.5161V43.4416C34.3994 43.5618 34.2638 43.6396 34.0818 43.6608C33.8998 43.6926 33.6963 43.7562 33.4751 43.8552C33.2431 43.9647 33.0789 44.1096 32.9933 44.2934C32.9005 44.4737 32.8612 44.7211 32.8612 45.0109C32.8612 45.3078 32.9291 45.5481 33.0611 45.7249C33.1967 45.9016 33.368 45.9899 33.5928 45.9899C33.9283 45.9864 34.1603 45.8662 34.303 45.6188Z" fill="#AEB2BA"/>
<path fill-rule="evenodd" clip-rule="evenodd" d="M167.852 0H215.995C219.435 0 222.223 2.76037 222.223 6.164V53.8396C222.223 57.2397 219.435 60.0001 215.995 60.0001H167.852C164.416 60.0001 161.628 57.2397 161.628 53.8396V6.164C161.628 2.76037 164.416 0 167.852 0Z" fill="#AEB2BA"/>
<path fill-rule="evenodd" clip-rule="evenodd" d="M183.312 22.3672H183.73V23.1624H185.614V22.353H186.06V24.0248H185.6V23.5547H183.708V24.0248H183.312V22.3672Z" fill="#F9F9F9"/>
<path fill-rule="evenodd" clip-rule="evenodd" d="M182.463 24.0154V21.0182C182.463 21.0182 182.574 20.7036 182.848 20.7036H186.067V21.1878H182.913V21.7639H186.067V22.2411H182.913V24.0154H182.463Z" fill="#F9F9F9"/>
<path fill-rule="evenodd" clip-rule="evenodd" d="M181.228 19.9764H181.792L181.763 20.4465C181.763 20.4465 182.01 19.9517 182.199 19.9517H186.057V20.3581L182.317 20.3546C182.317 20.3546 181.87 21.2735 181.835 22.3197C181.792 23.8148 182.22 24.2919 182.22 24.2919H186.099L186.078 24.7761H182.174C182.174 24.7761 181.981 24.7266 181.838 24.3449V24.6984H181.228V19.9764Z" fill="#F9F9F9"/>
<path fill-rule="evenodd" clip-rule="evenodd" d="M198.636 20.1232V36.5299H181.228V40.0537H202.623V20.1196H198.636V20.1232ZM200.803 22.4877C200.803 22.4877 200.614 22.6043 200.564 22.9224C200.521 23.2405 200.778 23.4561 200.778 23.4561C200.778 23.4561 200.332 23.3395 200.332 22.9436C200.332 22.5478 200.803 22.4877 200.803 22.4877ZM200.053 24.5376C200.053 24.5376 200.1 23.9651 200.681 23.9651C201.26 23.9651 201.206 24.4846 201.206 24.4846V25.5732H200.053V24.5376ZM197.498 36.7101C197.498 36.7101 197.312 36.8303 197.263 37.1484C197.216 37.4665 197.477 37.6856 197.477 37.6856C197.477 37.6856 197.027 37.5655 197.027 37.1731C197.027 36.7808 197.498 36.7101 197.498 36.7101ZM189.618 37.8447H188.009V38.6929H189.543V39.209H184.979V38.6717H187.288V37.4029H189.618V37.8447ZM194.789 39.2938C194.789 39.2938 195.699 38.1204 197.073 38.1204C198.451 38.1204 199.5 39.2514 199.5 39.2514L194.789 39.2938ZM201.206 39.2832H199.95V32.4794H201.206V39.2832ZM201.624 32.0164H199.525V30.8183H201.624V32.0164ZM199.95 30.5037V27.5313H201.206V30.5037H199.95ZM201.624 27.0789H199.525V25.8842H201.624V27.0789Z" fill="#F9F9F9"/>
<path fill-rule="evenodd" clip-rule="evenodd" d="M193.39 20.124V31.1302H181.228V34.8731H197.273V20.124H193.39ZM186.71 33.7774H185.057V32.194H186.71V33.7774ZM189.333 33.7774H187.673V32.194H189.333V33.7774ZM194.779 24.0826C194.9 23.6655 195.185 23.252 195.185 23.252C195.185 23.252 195.21 23.4782 195.357 23.9094C195.5 24.3441 196.481 25.157 196.456 25.9169C196.431 26.8571 195.792 27.26 195.268 27.26C194.465 27.26 194.004 26.7546 193.883 26.1148C193.712 25.2277 194.664 24.4855 194.779 24.0826ZM193.911 34.1344L194.547 27.5781H195.935L196.542 34.1344H193.911Z" fill="#F9F9F9"/>
<path fill-rule="evenodd" clip-rule="evenodd" d="M188.044 20.124V25.9381H181.228V29.469H191.817V20.124H188.044ZM189.072 25.2454C189.247 24.6622 189.65 24.3052 189.65 24.3052C189.65 24.3052 189.632 24.6445 189.69 24.8637C189.74 25.0828 189.986 25.3832 189.986 25.3832C189.986 25.3832 190.107 24.9556 190.293 24.7011C190.475 24.4431 190.678 24.2628 190.678 24.2628C190.678 24.2628 190.518 25.1111 190.589 25.4716C190.667 25.8356 190.81 26.2951 190.81 26.2951L188.915 26.2704C188.912 26.2668 188.897 25.825 189.072 25.2454ZM186.71 28.5889H185.057V27.002H186.71V28.5889ZM188.558 28.1153C188.558 28.1153 188.194 27.8078 188.048 27.624C187.902 27.4402 187.805 27.214 187.805 27.214H190.96C190.96 27.214 190.878 27.5887 190.518 27.624C190.15 27.6629 189.832 27.2989 189.268 27.518C188.708 27.7371 188.558 28.1153 188.558 28.1153ZM190.257 28.748C189.961 28.7621 189.74 28.5677 189.543 28.5854C189.34 28.6066 189.186 28.6525 189.186 28.6525C189.186 28.6525 189.283 28.3839 189.668 28.3839C190.054 28.3839 190.089 28.543 190.328 28.5253C190.568 28.5112 190.771 28.3839 190.771 28.3839C190.771 28.3839 190.55 28.7268 190.257 28.748ZM190.311 28.2426C189.875 28.2991 189.736 28.0199 189.379 28.0941C189.019 28.1683 188.912 28.3132 188.912 28.3132C188.912 28.3132 189.012 27.8608 189.472 27.8608C189.925 27.8608 190 28.0411 190.385 27.9704C190.771 27.8962 191.014 27.7902 191.014 27.7902C191.014 27.7902 190.753 28.1895 190.311 28.2426Z" fill="#F9F9F9"/>
<path d="M209.043 14.7577C209.043 13.814 208.269 13.0471 207.316 13.0471H206.17L203.126 10.0322H207.316C209.946 10.0322 212.084 12.1529 212.084 14.7577V31.1856L209.039 34.2005V14.7577H209.043Z" fill="#F9F9F9"/>
<path d="M190.728 49.9724L187.684 46.9576H207.315C208.268 46.9576 209.043 46.1906 209.043 45.2505V44.1159L212.087 41.1011V45.2505C212.087 47.8553 209.949 49.9724 207.319 49.9724H190.728Z" fill="#F9F9F9"/>
<path d="M176.531 49.9725C173.901 49.9725 171.76 47.8554 171.76 45.2505V28.819L174.804 25.8042V45.247C174.804 46.1906 175.578 46.9541 176.531 46.9541H177.677L180.721 49.9689H176.531V49.9725Z" fill="#F9F9F9"/>
<path d="M171.76 14.7577C171.76 12.1529 173.901 10.0322 176.531 10.0322H193.119L196.163 13.0471H176.531C175.578 13.0471 174.804 13.814 174.804 14.7577V15.8887L171.76 18.9036V14.7577Z" fill="#F9F9F9"/>
<path d="M191.926 56.288C190.649 56.288 189.453 55.7968 188.554 54.9025L176.823 43.285V39.0225L190.706 52.7713C191.016 53.0788 191.462 53.259 191.926 53.259C192.39 53.259 192.833 53.0823 193.147 52.7713L193.957 51.969H198.257L195.295 54.9025C194.396 55.7968 193.2 56.288 191.926 56.288Z" fill="#F9F9F9"/>
<path d="M193.144 7.23244C192.819 6.91081 192.384 6.73055 191.923 6.73055C191.463 6.73055 191.028 6.90727 190.703 7.23244L189.893 8.03475H185.589L188.551 5.10119C189.45 4.21052 190.649 3.71924 191.923 3.71924C193.197 3.71924 194.397 4.21052 195.296 5.10119L207.026 16.7188V20.9848L193.144 7.23244Z" fill="#F9F9F9"/>
<path d="M201.035 44.9572L214.917 31.2084C215.588 30.5404 215.588 29.4589 214.917 28.7909L214.107 27.9886V23.7261L217.069 26.6596C218.929 28.5011 218.929 31.4982 217.069 33.3432L205.342 44.9572H201.035Z" fill="#F9F9F9"/>
<path d="M166.781 33.3405C165.882 32.4498 165.386 31.2658 165.386 30.0005C165.386 28.7387 165.882 27.5511 166.781 26.6604L178.508 15.0464H182.816L168.933 28.7952C168.259 29.4632 168.259 30.5448 168.933 31.2128L169.743 32.0151V36.2776L166.781 33.3405Z" fill="#F9F9F9"/>
</svg>
