<svg width="229" height="62" viewBox="0 0 229 62" fill="none" xmlns="http://www.w3.org/2000/svg">
<path d="M84.4995 28.3958C84.4995 30.4575 84.1277 32.2657 83.3842 33.8204C82.6406 35.3751 81.6098 36.6763 80.2917 37.7241C79.0073 38.7718 77.4864 39.5661 75.7289 40.1068C74.0052 40.6138 72.1463 40.8673 70.1523 40.8673H64.2207V51.5137H56.4133V16.0257H70.9127C73.042 16.0257 74.9347 16.3299 76.5908 16.9383C78.2807 17.5128 79.7002 18.3409 80.8493 19.4224C82.0323 20.504 82.9279 21.8052 83.5363 23.3261C84.1784 24.8132 84.4995 26.4693 84.4995 28.2944V28.3958ZM76.5908 28.5479V28.4465C76.5908 26.689 76.0162 25.354 74.8671 24.4414C73.7517 23.5289 72.2139 23.0726 70.2536 23.0726H64.2207V33.9218H70.4057C72.366 33.9218 73.8869 33.4148 74.9685 32.4009C76.05 31.3531 76.5908 30.0688 76.5908 28.5479ZM124.853 51.5137H116.691L113.446 43.5542H98.4396L95.195 51.5137H87.2356L102.445 15.7722H109.644L124.853 51.5137ZM110.658 36.6594L105.943 25.1512L101.228 36.6594H110.658ZM155.983 41.0194C155.983 42.7769 155.662 44.3485 155.02 45.7342C154.377 47.0861 153.482 48.2353 152.333 49.1816C151.183 50.0942 149.815 50.8039 148.226 51.3109C146.638 51.7841 144.88 52.0206 142.954 52.0206C140.25 52.0206 137.597 51.5644 134.994 50.6518C132.392 49.7055 130.026 48.2691 127.897 46.3426L132.51 40.8166C134.132 42.1347 135.788 43.1825 137.478 43.9598C139.202 44.7372 141.078 45.1258 143.106 45.1258C144.728 45.1258 145.979 44.8386 146.857 44.264C147.77 43.6556 148.226 42.8276 148.226 41.7798V41.6784C148.226 41.1715 148.125 40.7321 147.922 40.3603C147.753 39.9547 147.398 39.583 146.857 39.245C146.35 38.907 145.624 38.569 144.677 38.231C143.765 37.8931 142.565 37.5382 141.078 37.1664C139.287 36.727 137.664 36.2369 136.211 35.6962C134.758 35.1554 133.524 34.4963 132.51 33.719C131.496 32.9078 130.702 31.9108 130.127 30.7279C129.587 29.5449 129.316 28.0747 129.316 26.3172V26.2158C129.316 24.5935 129.62 23.1402 130.229 21.8559C130.837 20.5378 131.682 19.4055 132.764 18.4592C133.879 17.5128 135.197 16.7862 136.718 16.2792C138.239 15.7722 139.912 15.5187 141.737 15.5187C144.339 15.5187 146.722 15.9074 148.885 16.6848C151.082 17.4621 153.093 18.5775 154.918 20.0308L150.862 25.9116C149.274 24.8301 147.719 23.9852 146.198 23.3768C144.677 22.7346 143.156 22.4135 141.636 22.4135C140.115 22.4135 138.965 22.7177 138.188 23.3261C137.445 23.9007 137.073 24.6273 137.073 25.5061V25.6075C137.073 26.182 137.174 26.689 137.377 27.1284C137.614 27.5339 138.019 27.9057 138.594 28.2437C139.168 28.5817 139.946 28.9028 140.926 29.207C141.94 29.5111 143.207 29.866 144.728 30.2716C146.519 30.7448 148.108 31.2855 149.494 31.8939C150.913 32.4685 152.096 33.1782 153.042 34.0232C154.023 34.8343 154.749 35.7976 155.222 36.9129C155.729 38.0282 155.983 39.3633 155.983 40.918V41.0194ZM188.411 41.0194C188.411 42.7769 188.09 44.3485 187.448 45.7342C186.806 47.0861 185.91 48.2353 184.761 49.1816C183.612 50.0942 182.243 50.8039 180.654 51.3109C179.066 51.7841 177.308 52.0206 175.382 52.0206C172.678 52.0206 170.025 51.5644 167.423 50.6518C164.82 49.7055 162.454 48.2691 160.325 46.3426L164.938 40.8166C166.561 42.1347 168.217 43.1825 169.907 43.9598C171.63 44.7372 173.506 45.1258 175.534 45.1258C177.156 45.1258 178.407 44.8386 179.286 44.264C180.198 43.6556 180.654 42.8276 180.654 41.7798V41.6784C180.654 41.1715 180.553 40.7321 180.35 40.3603C180.181 39.9547 179.826 39.583 179.286 39.245C178.779 38.907 178.052 38.569 177.106 38.231C176.193 37.8931 174.993 37.5382 173.506 37.1664C171.715 36.727 170.093 36.2369 168.639 35.6962C167.186 35.1554 165.952 34.4963 164.938 33.719C163.924 32.9078 163.13 31.9108 162.556 30.7279C162.015 29.5449 161.744 28.0747 161.744 26.3172V26.2158C161.744 24.5935 162.049 23.1402 162.657 21.8559C163.265 20.5378 164.11 19.4055 165.192 18.4592C166.307 17.5128 167.625 16.7862 169.146 16.2792C170.667 15.7722 172.34 15.5187 174.165 15.5187C176.768 15.5187 179.15 15.9074 181.314 16.6848C183.51 17.4621 185.521 18.5775 187.346 20.0308L183.291 25.9116C181.702 24.8301 180.148 23.9852 178.627 23.3768C177.106 22.7346 175.585 22.4135 174.064 22.4135C172.543 22.4135 171.394 22.7177 170.616 23.3261C169.873 23.9007 169.501 24.6273 169.501 25.5061V25.6075C169.501 26.182 169.603 26.689 169.805 27.1284C170.042 27.5339 170.447 27.9057 171.022 28.2437C171.597 28.5817 172.374 28.9028 173.354 29.207C174.368 29.5111 175.635 29.866 177.156 30.2716C178.948 30.7448 180.536 31.2855 181.922 31.8939C183.341 32.4685 184.524 33.1782 185.471 34.0232C186.451 34.8343 187.178 35.7976 187.651 36.9129C188.158 38.0282 188.411 39.3633 188.411 40.918V41.0194ZM225.858 51.5137H216.733L209.128 40.1575H202.994V51.5137H195.187V16.0257H211.41C215.635 16.0257 218.913 17.0565 221.245 19.1182C223.611 21.1799 224.794 24.0527 224.794 27.7367V27.8381C224.794 30.711 224.084 33.0599 222.665 34.885C221.279 36.6763 219.454 37.9944 217.189 38.8394L225.858 51.5137ZM216.885 28.2437V28.1423C216.885 26.4524 216.344 25.185 215.263 24.34C214.181 23.4951 212.677 23.0726 210.751 23.0726H202.994V33.2627H210.903C212.829 33.2627 214.3 32.8064 215.313 31.8939C216.361 30.9814 216.885 29.7646 216.885 28.2437Z" fill="#AEB2BA"/>
<path d="M0 33.5477L0.210436 58.0538H14.5136V41.4369L43.3302 24.3994V0H28.8167V16.8272L0 33.5477Z" fill="#A3A7AF"/>
<path d="M0 33.5477V16.6168L28.8167 0V16.8272L0 33.5477Z" fill="#AEB2BA"/>
<path d="M14.5142 58.0547V41.4379L29.0277 32.8594V49.8515L14.5142 58.0547Z" fill="#AEB2BA"/>
</svg>
