<svg width="393" height="60" viewBox="0 0 393 60" fill="none" xmlns="http://www.w3.org/2000/svg">
<path d="M223.008 50.8789H108.504L117.625 59.9999L223.008 50.8789Z" fill="#AEB2BA"/>
<path d="M119.109 13.9843V15.3587C117.17 13.9773 114.851 13.2291 112.469 13.2168C104.437 13.2168 98.3506 20.535 98.3506 29.5132C98.3506 38.4914 104.437 45.8096 112.469 45.8096C114.851 45.7973 117.17 45.0492 119.109 43.6677V45.06H126.16V13.9843H119.109ZM112.469 38.3308C108.507 38.3308 105.615 34.4396 105.615 29.5132C105.615 24.5868 108.507 20.7135 112.469 20.7135C116.432 20.7135 119.216 24.6047 119.216 29.5132C119.216 34.4218 116.485 38.3308 112.469 38.3308Z" fill="#AEB2BA"/>
<path d="M175.584 13.9844V32.155C175.662 32.96 175.57 33.7723 175.315 34.5398C175.061 35.3074 174.648 36.0131 174.104 36.6118C173.561 37.2105 172.898 37.6889 172.158 38.0162C171.419 38.3436 170.619 38.5127 169.81 38.5127C169.001 38.5127 168.202 38.3436 167.462 38.0162C166.722 37.6889 166.06 37.2105 165.516 36.6118C164.972 36.0131 164.56 35.3074 164.305 34.5398C164.05 33.7723 163.958 32.96 164.036 32.155V13.9844H156.985V32.155C156.985 39.6517 162.108 45.7383 169.605 45.7383C171.744 45.7132 173.827 45.048 175.584 43.8284V44.9886H182.724V13.9844H175.584Z" fill="#AEB2BA"/>
<path d="M241.302 45.06V26.8001C241.225 25.9951 241.316 25.1828 241.571 24.4152C241.826 23.6477 242.239 22.9419 242.782 22.3433C243.326 21.7446 243.989 21.2662 244.729 20.9389C245.468 20.6115 246.268 20.4424 247.077 20.4424C247.885 20.4424 248.685 20.6115 249.425 20.9389C250.164 21.2662 250.827 21.7446 251.371 22.3433C251.915 22.9419 252.327 23.6477 252.582 24.4152C252.837 25.1828 252.928 25.9951 252.851 26.8001V45.06H259.901V26.8001C259.901 19.3034 254.779 13.2168 247.282 13.2168C245.141 13.2471 243.058 13.9186 241.302 15.1445V13.9843H234.163V45.06H241.302Z" fill="#AEB2BA"/>
<path d="M78.0207 45.06V33.0118H83.2327L92.2644 45.06H101.51L90.5866 30.5307C92.8976 28.8856 94.6262 26.549 95.5232 23.8579C96.4202 21.1668 96.4391 18.2603 95.5773 15.5577C94.7155 12.8551 93.0175 10.4961 90.7282 8.82101C88.4389 7.14594 85.6767 6.24137 82.84 6.23779H70.6489V45.06H78.0207ZM78.0207 13.6096H82.84C84.4353 13.6096 85.9653 14.2433 87.0934 15.3714C88.2215 16.4994 88.8552 18.0294 88.8552 19.6248C88.8552 21.2201 88.2215 22.7501 87.0934 23.8782C85.9653 25.0062 84.4353 25.64 82.84 25.64H78.0207V13.6096Z" fill="#AEB2BA"/>
<path d="M201.643 37.7058C200.952 38.1887 200.13 38.4502 199.287 38.4554C198.814 38.4382 198.35 38.3244 197.923 38.121C197.496 37.9175 197.116 37.6288 196.805 37.2726C196.494 36.9164 196.259 36.5002 196.115 36.0498C195.971 35.5993 195.92 35.1241 195.967 34.6535V21.445H202V14.0733H195.967V6.32666H188.917V14.0733H185.186V21.445H188.917V34.8499C188.867 36.2682 189.099 37.6823 189.6 39.01C190.102 40.3377 190.862 41.5525 191.837 42.5838C192.811 43.6152 193.982 44.4425 195.279 45.0177C196.576 45.5928 197.975 45.9044 199.394 45.9343C201.825 45.8681 204.2 45.193 206.302 43.9708L201.643 37.7058Z" fill="#AEB2BA"/>
<path d="M143.686 28.5489L155.788 13.9839H145.899L137.439 24.8006V3.66699H130.174V45.0417H137.439V32.2795L147.845 45.0417H157.715L143.686 28.5489Z" fill="#AEB2BA"/>
<path d="M217.939 13.1987C209.782 13.1987 203.928 20.3385 203.928 29.513C203.928 39.1338 211.264 45.8451 218.636 45.8451C221.137 45.8387 223.597 45.1965 225.782 43.9788C227.968 42.7612 229.808 41.008 231.13 38.8839L224.901 35.314C220.081 42.4537 212.049 38.8839 211.121 31.7442H231.434C233.183 20.5348 225.954 13.1987 217.939 13.1987ZM224.097 25.5147H211.389C212.87 18.2322 222.723 17.8752 224.097 25.5147Z" fill="#AEB2BA"/>
<path d="M282.604 42.3822L271.252 14.0911C271.093 13.7177 270.974 13.3289 270.895 12.9308C270.809 12.5141 270.767 12.0892 270.77 11.6636C270.756 11.104 270.86 10.5476 271.075 10.0309C271.291 9.51422 271.612 9.04874 272.02 8.66486C272.87 7.87034 273.998 7.44097 275.161 7.46896C275.998 7.43903 276.813 7.74051 277.428 8.30788C278.167 9.11247 278.722 10.0689 279.052 11.1102L286.763 31.9225L294.206 11.4137C294.509 10.2697 295.085 9.21624 295.884 8.34359C296.579 7.73818 297.481 7.42478 298.401 7.46896C299.506 7.41218 300.588 7.7902 301.418 8.52207C301.791 8.89064 302.083 9.33394 302.274 9.82299C302.465 10.312 302.55 10.8358 302.524 11.3601C302.52 11.8513 302.472 12.3411 302.381 12.8238C302.274 13.3213 302.131 13.8105 301.953 14.2874L290.958 42.0609C290.591 43.0914 289.979 44.0166 289.173 44.7562C288.442 45.3145 287.539 45.5987 286.621 45.5594C285.762 45.6024 284.916 45.3435 284.229 44.8276C283.492 44.1606 282.934 43.32 282.604 42.3822Z" fill="#AEB2BA"/>
<path d="M312.544 39.9193C312.644 41.4026 312.316 42.8835 311.598 44.1853C311.277 44.6458 310.841 45.0148 310.334 45.2558C309.827 45.4968 309.266 45.6015 308.706 45.5596C308.135 45.5965 307.563 45.4882 307.045 45.2447C306.527 45.0013 306.079 44.6307 305.743 44.1674C305.009 42.8776 304.674 41.3994 304.779 39.9193V24.3011C304.674 22.821 305.009 21.3428 305.743 20.053C306.077 19.5879 306.525 19.217 307.044 18.9762C307.563 18.7354 308.136 18.6329 308.706 18.6786C309.266 18.6367 309.827 18.7414 310.334 18.9824C310.841 19.2234 311.277 19.5924 311.598 20.053C312.316 21.3481 312.645 22.8235 312.544 24.3011V39.9193Z" fill="#AEB2BA"/>
<path d="M324.301 18.8924C325.172 18.114 326.184 17.5083 327.282 17.1075C328.427 16.6994 329.636 16.4999 330.852 16.5184C332.575 16.5014 334.281 16.8728 335.841 17.6051C337.402 18.3375 338.777 19.4119 339.865 20.7487C342.36 23.6998 343.67 27.4715 343.542 31.3333C343.629 35.0914 342.283 38.7418 339.776 41.5431C338.697 42.8695 337.337 43.9389 335.793 44.6737C334.249 45.4085 332.561 45.7903 330.852 45.7913C329.56 45.8041 328.278 45.5552 327.085 45.0595C325.954 44.6032 324.945 43.888 324.14 42.9711C323.712 43.7692 323.1 44.4543 322.355 44.9702C321.715 45.4096 320.954 45.6403 320.178 45.6306C319.574 45.6685 318.971 45.5524 318.424 45.2933C317.878 45.0341 317.407 44.6404 317.054 44.1492C316.293 42.7648 315.947 41.1912 316.054 39.6154V13.484C315.949 11.9027 316.296 10.3241 317.054 8.93248C317.431 8.46981 317.906 8.09684 318.444 7.8407C318.983 7.58455 319.572 7.45166 320.169 7.45166C320.765 7.45166 321.354 7.58455 321.893 7.8407C322.432 8.09684 322.907 8.46981 323.283 8.93248C324.072 10.3133 324.433 11.8977 324.319 13.484L324.301 18.8924ZM323.658 31.1906C323.561 33.1487 324.147 35.0798 325.318 36.6524C325.818 37.3107 326.463 37.8445 327.203 38.212C327.943 38.5795 328.758 38.7707 329.584 38.7707C330.41 38.7707 331.226 38.5795 331.966 38.212C332.706 37.8445 333.351 37.3107 333.85 36.6524C335.002 35.1104 335.594 33.2215 335.528 31.2977C335.616 29.3296 335.031 27.3903 333.868 25.8001C333.369 25.1384 332.723 24.6016 331.981 24.232C331.239 23.8624 330.422 23.67 329.593 23.67C328.764 23.67 327.947 23.8624 327.205 24.232C326.463 24.6016 325.817 25.1384 325.318 25.8001C324.18 27.3618 323.596 29.259 323.658 31.1906Z" fill="#AEB2BA"/>
<path d="M352.769 33.4583C353.069 34.9106 353.92 36.1902 355.143 37.0282C356.396 37.9492 357.928 38.4095 359.481 38.3312C361.283 38.2676 363.05 37.8107 364.657 36.9925C365.776 36.3759 366.978 35.925 368.227 35.6538C368.663 35.6326 369.098 35.7009 369.506 35.8544C369.915 36.0079 370.287 36.2433 370.601 36.5462C370.909 36.8395 371.151 37.1948 371.311 37.5887C371.471 37.9826 371.545 38.4061 371.529 38.8309C371.529 40.6159 370.297 42.2045 367.816 43.6146C365.15 45.094 362.136 45.8335 359.088 45.7565C357.192 45.8034 355.306 45.4582 353.549 44.7426C351.792 44.0269 350.202 42.9562 348.878 41.5976C347.528 40.223 346.469 38.5892 345.767 36.7947C345.064 35.0002 344.732 33.082 344.791 31.1557C344.731 29.2305 345.052 27.3123 345.735 25.5113C346.418 23.7103 347.45 22.0618 348.771 20.6603C350.028 19.3512 351.533 18.3049 353.198 17.5819C354.863 16.859 356.655 16.474 358.47 16.449C360.285 16.4241 362.087 16.7599 363.771 17.4369C365.455 18.1138 366.988 19.1185 368.28 20.3926C369.539 21.664 370.529 23.1757 371.192 24.8378C371.854 26.4998 372.175 28.2782 372.136 30.0669C372.188 30.5359 372.141 31.0107 371.996 31.4599C371.851 31.9091 371.613 32.3225 371.297 32.6729C370.324 33.268 369.182 33.5253 368.048 33.4047L352.769 33.4583ZM352.43 28.639H364.586C364.525 27.0799 363.889 25.5985 362.801 24.4801C361.713 23.4649 360.272 22.9141 358.785 22.945C357.281 22.915 355.817 23.4283 354.661 24.3908C353.496 25.5201 352.715 26.9877 352.43 28.5854V28.639Z" fill="#AEB2BA"/>
<path d="M374.391 39.5088V22.909C374.278 21.3364 374.632 19.7656 375.408 18.3931C375.754 17.9002 376.222 17.506 376.767 17.2493C377.311 16.9926 377.913 16.8824 378.514 16.9295C379.299 16.9153 380.071 17.1393 380.727 17.5721C381.474 18.0782 382.086 18.7581 382.512 19.5533C383.285 18.7058 384.204 18.0045 385.225 17.4828C386.119 17.021 387.11 16.7764 388.117 16.7688C388.667 16.7623 389.212 16.8664 389.721 17.0749C390.23 17.2834 390.692 17.5921 391.08 17.9826C391.473 18.3538 391.785 18.8022 391.997 19.2998C392.209 19.7974 392.316 20.3333 392.311 20.8742C392.311 22.5163 390.794 23.9086 387.76 25.0152C386.671 25.4079 385.85 25.7292 385.314 25.9791C384.471 26.3086 383.749 26.8878 383.244 27.6391C382.815 28.6778 382.638 29.8031 382.726 30.9233V39.5088C382.839 41.0872 382.485 42.6638 381.709 44.0426C381.356 44.5339 380.885 44.9275 380.338 45.1867C379.792 45.4458 379.189 45.5619 378.585 45.5241C377.983 45.5711 377.379 45.4589 376.834 45.1989C376.289 44.9389 375.822 44.5401 375.479 44.0426C374.678 42.6714 374.299 41.0943 374.391 39.5088Z" fill="#AEB2BA"/>
<path d="M304.526 11.7705C304.519 11.2007 304.629 10.6355 304.85 10.1103C305.071 9.58513 305.399 9.11123 305.811 8.71827C306.211 8.31083 306.689 7.98853 307.217 7.77074C307.744 7.55294 308.311 7.44417 308.881 7.45099C309.444 7.44415 310.002 7.5531 310.521 7.77112C311.04 7.98913 311.509 8.31153 311.898 8.71827C312.305 9.1147 312.627 9.58966 312.845 10.1143C313.063 10.639 313.172 11.2025 313.165 11.7705C313.168 12.3337 313.058 12.8918 312.844 13.4126C312.629 13.9335 312.314 14.4066 311.916 14.8049C311.517 15.2032 311.044 15.5186 310.523 15.7331C310.003 15.9475 309.445 16.0567 308.881 16.0543C308.308 16.0712 307.738 15.9689 307.206 15.7538C306.675 15.5387 306.194 15.2156 305.793 14.8049C305.384 14.4144 305.059 13.9431 304.841 13.4208C304.623 12.8984 304.516 12.3365 304.526 11.7705Z" fill="#AEB2BA"/>
<path d="M49.6924 5.755C48.2287 4.39846 42.3028 0.0967519 29.1121 0.043204C29.1121 0.043204 13.5475 -0.902791 5.90801 6.05844C1.67773 10.2887 0.196233 16.4646 0.0355889 24.1219C-0.125055 31.7793 -0.321399 46.1301 13.5118 50.0213V55.9651C13.5118 55.9651 13.5118 58.3748 15.0112 58.8567C16.921 59.4636 18.0455 57.6251 19.884 55.6617C20.8836 54.5728 22.2758 52.9843 23.3111 51.7705C29.1964 52.3204 35.1322 51.886 40.8748 50.4854C42.7847 49.8606 53.6014 48.4862 55.3685 34.1176C57.2426 19.3205 54.5474 9.96744 49.6924 5.755ZM51.2988 33.0644C49.7995 45.0413 41.0355 45.791 39.429 46.3086C34.488 47.5266 29.3872 47.9662 24.3107 47.6116C24.3107 47.6116 18.3133 54.7513 16.4391 56.7148C16.3348 56.8379 16.2028 56.9346 16.0538 56.9966C15.9048 57.0587 15.7432 57.0845 15.5823 57.0718C15.2611 56.9825 15.1718 56.6077 15.1718 56.0543C15.1718 55.501 15.1718 46.1837 15.1718 46.1837C3.46266 42.9173 4.14093 30.7083 4.28373 24.3183C4.42652 17.9282 5.62243 12.6805 9.19229 9.14636C15.6002 3.34534 28.8265 4.2021 28.8265 4.2021C39.9824 4.2021 45.3372 7.61133 46.5688 8.73584C50.7276 12.27 52.816 20.6949 51.2988 33.0644Z" fill="#AEB2BA"/>
<path d="M34.5398 24.5331C34.347 24.5333 34.1616 24.4593 34.022 24.3263C33.8824 24.1933 33.7994 24.0117 33.7902 23.8191C33.8371 23.3087 33.7735 22.794 33.6037 22.3103C33.4339 21.8266 33.1619 21.3852 32.8063 21.0159C32.4506 20.6467 32.0196 20.3585 31.5426 20.1707C31.0656 19.983 30.5537 19.9002 30.0418 19.928C29.843 19.9161 29.657 19.8258 29.5248 19.6769C29.3926 19.5279 29.3249 19.3325 29.3368 19.1337C29.3486 18.9349 29.4389 18.7489 29.5879 18.6167C29.7369 18.4845 29.9322 18.4168 30.1311 18.4286C30.8312 18.4071 31.528 18.5324 32.1768 18.7965C32.8255 19.0606 33.4118 19.4577 33.8977 19.9622C34.3837 20.4666 34.7586 21.0673 34.9983 21.7254C35.238 22.3836 35.3372 23.0846 35.2895 23.7834C35.2943 23.8819 35.2797 23.9804 35.2464 24.0732C35.2131 24.166 35.1618 24.2513 35.0955 24.3242C35.0291 24.3972 34.9491 24.4563 34.8599 24.4983C34.7706 24.5403 34.674 24.5642 34.5755 24.5688L34.5398 24.5331Z" fill="#AEB2BA"/>
<path d="M38.3773 25.8182C38.2788 25.8159 38.1818 25.7942 38.0917 25.7544C38.0017 25.7145 37.9203 25.6573 37.8524 25.5861C37.7844 25.5148 37.7311 25.4308 37.6956 25.339C37.6601 25.2471 37.6431 25.1491 37.6455 25.0507C37.7127 23.9047 37.55 22.7569 37.1668 21.6747C36.7836 20.5926 36.1878 19.5982 35.4143 18.7499C33.7083 16.983 31.3727 15.9628 28.9172 15.9118C28.8103 15.9187 28.7032 15.9027 28.6031 15.8647C28.503 15.8268 28.4121 15.7678 28.3367 15.6918C28.2613 15.6158 28.203 15.5245 28.1658 15.4241C28.1286 15.3237 28.1134 15.2165 28.1211 15.1097C28.1288 15.0029 28.1593 14.899 28.2106 14.805C28.2618 14.7109 28.3326 14.629 28.4182 14.5646C28.5038 14.5002 28.6021 14.455 28.7067 14.4318C28.8112 14.4086 28.9195 14.4082 29.0242 14.4304C31.859 14.5076 34.5505 15.6931 36.521 17.7325C38.3131 19.722 39.2438 22.3407 39.1091 25.015C39.1191 25.1169 39.1076 25.2198 39.0753 25.317C39.043 25.4142 38.9907 25.5036 38.9217 25.5793C38.8528 25.655 38.7687 25.7154 38.6749 25.7565C38.5811 25.7977 38.4797 25.8187 38.3773 25.8182Z" fill="#AEB2BA"/>
<path d="M42.2838 27.3527C42.085 27.3527 41.8943 27.2737 41.7537 27.1331C41.6132 26.9925 41.5342 26.8018 41.5342 26.603C41.639 24.6375 41.3364 22.6715 40.6453 20.8285C39.9541 18.9855 38.8895 17.3053 37.5181 15.8934C36.2121 14.6177 34.665 13.6151 32.9671 12.9439C31.2693 12.2727 29.4548 11.9466 27.6296 11.9844C27.4307 11.9844 27.24 11.9054 27.0994 11.7648C26.9589 11.6242 26.8799 11.4336 26.8799 11.2347C26.8799 11.0359 26.9589 10.8452 27.0994 10.7047C27.24 10.5641 27.4307 10.4851 27.6296 10.4851C29.6465 10.4511 31.6503 10.8169 33.5252 11.5614C35.4001 12.3058 37.109 13.4141 38.5533 14.8224C40.0539 16.3684 41.2235 18.2041 41.9907 20.2173C42.758 22.2305 43.1067 24.3791 43.0156 26.5316C43.0156 26.7304 42.9367 26.9211 42.7961 27.0617C42.6555 27.2023 42.4648 27.2813 42.266 27.2813L42.2838 27.3527Z" fill="#AEB2BA"/>
<path d="M30.2409 33.7782C30.5367 33.8002 30.8338 33.7573 31.1113 33.6525C31.3888 33.5477 31.64 33.3834 31.8473 33.1713L32.954 31.779C33.3329 31.3621 33.8469 31.0923 34.4052 31.0172C34.9636 30.942 35.5306 31.0665 36.0062 31.3685C36.9532 31.9148 37.8707 32.5106 38.755 33.1534C39.5939 33.7782 41.2896 35.1883 41.2896 35.2061C41.6891 35.5292 41.9555 35.9881 42.0378 36.4953C42.1201 37.0024 42.0126 37.5221 41.7359 37.9549C41.1284 39.01 40.3572 39.962 39.4511 40.7751C38.7973 41.3688 37.9849 41.7596 37.1129 41.8996C37.0007 41.9189 36.886 41.9189 36.7737 41.8996C36.441 41.9046 36.1096 41.8564 35.792 41.7568C33.5674 40.9876 31.4264 39.9949 29.402 38.7938C27.5177 37.76 25.7262 36.5656 24.0472 35.224C23.2037 34.5566 22.3992 33.8415 21.6375 33.082H21.5483C20.7934 32.3099 20.0785 31.4997 19.4064 30.6545C18.0707 28.9712 16.8766 27.1801 15.8365 25.2997C14.635 23.2781 13.6479 21.1364 12.8914 18.9097C12.7859 18.5869 12.7317 18.2497 12.7307 17.9101C12.72 17.7973 12.72 17.6838 12.7307 17.571C12.868 16.7034 13.2593 15.8959 13.8552 15.2506C14.5418 14.2108 15.3917 13.2887 16.372 12.5196C16.8076 12.2417 17.3302 12.1336 17.8403 12.2158C18.3504 12.2981 18.8125 12.5651 19.1386 12.9659C19.1386 12.9659 20.5666 14.7508 21.1734 15.5005C21.7803 16.2501 22.53 17.5531 22.9584 18.2493C23.2527 18.7317 23.3709 19.3011 23.2928 19.8608C23.2147 20.4205 22.9452 20.9359 22.53 21.3193L21.1378 22.4081C20.9252 22.6189 20.7609 22.8733 20.6561 23.1537C20.5513 23.4341 20.5086 23.7339 20.5309 24.0324C21.211 26.3364 22.4552 28.4342 24.1507 30.136C25.8462 31.8377 27.9395 33.0896 30.2409 33.7782Z" fill="#AEB2BA"/>
</svg>
